  <svg
    xmlns="http://www.w3.org/2000/svg"
    id="Layer_1"
    data-name="Layer 1"
    viewBox="0 0 388.66 73.61"
    {...props}
  >
    <defs>
      <style>{".cls-1{fill:#46515c;stroke-width:0}"}</style>
    </defs>
    <path
      d="M33.02 7.16 3.35 58.22c-4.53 7.8-.82 14.18 8.24 14.18h59.35c7.77 0 12.31-6.44 8.45-13.43-1.74-3.15-3.6-6.24-5.4-9.36-5.91-10.24-11.82-20.47-17.73-30.71-2.37-4.1-4.73-8.2-7.1-12.3-4.56-7.24-11.72-7.07-16.14.54v.02ZM120.19 8.11c-14.04 0-23.84 9.86-23.84 23.97s9.8 23.97 23.84 23.97 23.84-9.86 23.84-23.97-9.8-23.97-23.84-23.97Zm0 42.08c-10.72 0-17.92-7.28-17.92-18.11s7.2-18.11 17.92-18.11 17.98 7.28 17.98 18.11-7.23 18.11-17.98 18.11ZM167.42 19.69c-5.3 0-9.95 2-13.14 5.56l-.28-4.74h-5.04v47.37h5.67V50.84c3.23 3.34 7.75 5.21 12.79 5.21 10.29 0 17.77-7.66 17.77-18.21s-7.47-18.15-17.77-18.15Zm-.38 5.54c7.46 0 12.48 5.07 12.48 12.6s-5.01 12.67-12.48 12.67-12.54-5.09-12.54-12.67 5.16-12.6 12.54-12.6ZM206.89 19.69c-10.46 0-17.77 7.46-17.77 18.15s7.28 18.21 17.71 18.21c7.65 0 14.07-4.12 16.75-10.75l.55-1.35-6.2-.1-.28.56c-1.99 3.91-5.93 6.16-10.81 6.16-6.33 0-10.88-3.97-11.85-10.21h29.59l.02-.98c.14-5.95-1.7-11.18-5.16-14.73-3.17-3.25-7.51-4.96-12.55-4.96Zm0 5.48c6.28 0 10.76 3.79 11.93 9.96h-23.84c.98-6.09 5.55-9.96 11.9-9.96ZM246.75 19.69c-4.67 0-8.74 1.85-11.55 5.16l-.22-4.34h-5.05v34.71h5.67V37.26c0-7.2 4.3-12.04 10.71-12.04 5.99 0 9.57 4.19 9.57 11.21v18.78h5.67v-19.1c0-9.99-5.81-16.44-14.79-16.44v.02ZM268.07 8.21h5.67v47.02h-5.67zM295.9 19.69c-7.4 0-13.06 4.07-14.76 10.62l-.33 1.25h5.74l.23-.68c1.21-3.56 4.72-5.78 9.18-5.78 5.5 0 9.06 3.16 9.06 8.05v1.34h-13.43c-7.37 0-12.14 4.12-12.14 10.49s5.24 10.75 13.34 10.75c5.15 0 9.55-1.63 12.64-4.65l.28 4.14h4.97V32.96c0-7.82-6.08-13.28-14.79-13.28h.01Zm-2.97 30.75c-4.81 0-7.8-2.11-7.8-5.52 0-3.11 2.65-5.2 6.59-5.2h13.37v.39c0 5.98-5.12 10.33-12.16 10.33ZM332.84 19.69c-4.67 0-8.74 1.85-11.55 5.16l-.22-4.34h-5.05v34.71h5.67V37.26c0-7.2 4.3-12.04 10.71-12.04 5.99 0 9.57 4.19 9.57 11.21v18.78h5.67v-19.1c0-9.99-5.81-16.44-14.79-16.44v.02ZM387.24 39.38c.14-5.95-1.7-11.18-5.16-14.73-3.17-3.25-7.51-4.96-12.55-4.96-10.46 0-17.77 7.46-17.77 18.15s7.28 18.21 17.71 18.21c7.65 0 14.07-4.12 16.75-10.75l.55-1.35-6.2-.1-.28.56c-1.99 3.91-5.93 6.16-10.81 6.16-6.33 0-10.88-3.97-11.85-10.21h29.59l.02-.98Zm-17.71-14.21c6.28 0 10.76 3.79 11.93 9.96h-23.84c.98-6.09 5.55-9.96 11.9-9.96h.01Z"
      className="cls-1"
    />
    <path
      d="M43.04 61.32c-1.25-1.6-2.34-3.48-2.33-5.51.02-8.49 13.79-12.32 18.87-17.07 1.99-1.86 3.59-4.34 4.11-6.96l-6.84-11.85c-1.72-1.14-3.58-2.11-5.43-3.01-4.24-2.07-13.03-5.38-19.89-7.17l-1.29 2.23c.51.26 1.02.51 1.53.77 3.16 1.61 6.34 3.25 9.03 5.61 1.04.91 2.03 1.99 2.4 3.32.52 1.9-.37 3.96-1.75 5.37-5 5.05-13.94 6.49-20.34 8.97-2.19.85-4.36 1.77-6.47 2.81L3.35 58.22c-4.53 7.8-.82 14.18 8.24 14.18h49.82c-1.79-.49-3.57-1.08-5.38-1.81-4.99-2.01-9.67-5.04-12.98-9.28Z"
      style={{
        fill: "#66c5b3",
        strokeWidth: 0,
      }}
    />
  </svg>