<svg width="26" height="26" viewBox="0 0 26 26" fill="none" xmlns="http://www.w3.org/2000/svg">
<g id="Frame 2147223500">
<circle id="Ellipse 4" cx="13.5" cy="13.5" r="12.5" fill="#EF4444"/>
<path id="!" d="M12.5557 14.872L12.1557 7.38397H14.7957L14.3957 14.872H12.5557ZM13.4677 19.176C13.0517 19.176 12.7051 19.032 12.4277 18.744C12.1504 18.456 12.0117 18.1093 12.0117 17.704C12.0117 17.2773 12.1504 16.9253 12.4277 16.648C12.7051 16.36 13.0517 16.216 13.4677 16.216C13.8944 16.216 14.2411 16.36 14.5077 16.648C14.7851 16.9253 14.9237 17.2773 14.9237 17.704C14.9237 18.1093 14.7851 18.456 14.5077 18.744C14.2411 19.032 13.8944 19.176 13.4677 19.176Z" fill="white"/>
</g>
</svg>
