<svg width="16" height="16" viewBox="0 0 16 16" fill="none" xmlns="http://www.w3.org/2000/svg">
<g id="Icon">
<path id="Vector" d="M9.33333 12L12 9.33331M12 9.33331L14.6667 12M12 9.33331V14.6666M10.6667 1.33331V3.99998M14 7.56198V3.99998C14 3.64636 13.8595 3.30722 13.6095 3.05717C13.3594 2.80712 13.0203 2.66665 12.6667 2.66665H3.33333C2.97971 2.66665 2.64057 2.80712 2.39052 3.05717C2.14048 3.30722 2 3.64636 2 3.99998V13.3333C2 13.6869 2.14048 14.0261 2.39052 14.2761C2.64057 14.5262 2.97971 14.6666 3.33333 14.6666H9.33333M2 6.66665H14M5.33333 1.33331V3.99998" stroke="#EF4444" stroke-linecap="round" stroke-linejoin="round"/>
</g>
</svg>
