<svg width="30" height="30" viewBox="0 0 30 30" fill="none" xmlns="http://www.w3.org/2000/svg">
<g id="-">
<path id="Vector" d="M25.4129 5.06168C23.4419 4.1439 21.3611 3.4928 19.2237 3.125C18.9312 3.65678 18.6665 4.20391 18.4308 4.7641C16.1541 4.41517 13.8388 4.41517 11.562 4.7641C11.3262 4.20397 11.0616 3.65684 10.7692 3.125C8.63043 3.4959 6.54826 4.14855 4.57525 5.06648C0.658307 10.9605 -0.403515 16.7082 0.127396 22.3742C2.42126 24.0979 4.98874 25.4089 7.71824 26.25C8.33284 25.4093 8.87669 24.5174 9.34401 23.5838C8.4564 23.2466 7.59971 22.8306 6.78384 22.3406C6.99856 22.1822 7.20857 22.0191 7.41149 21.8607C9.78548 22.9961 12.3766 23.5849 15 23.5849C17.6234 23.5849 20.2145 22.9961 22.5885 21.8607C22.7937 22.0311 23.0038 22.1942 23.2161 22.3406C22.3987 22.8314 21.5404 23.2482 20.6512 23.5862C21.118 24.5193 21.6619 25.4105 22.277 26.25C25.0088 25.4122 27.5783 24.1019 29.8726 22.3766C30.4955 15.8058 28.8084 10.111 25.4129 5.06168ZM10.0165 18.8896C8.53702 18.8896 7.31475 17.5241 7.31475 15.8442C7.31475 14.1643 8.49455 12.7868 10.0118 12.7868C11.529 12.7868 12.7418 14.1643 12.7159 15.8442C12.6899 17.5241 11.5243 18.8896 10.0165 18.8896ZM19.9835 18.8896C18.5016 18.8896 17.2841 17.5241 17.2841 15.8442C17.2841 14.1643 18.4639 12.7868 19.9835 12.7868C21.503 12.7868 22.7064 14.1643 22.6805 15.8442C22.6545 17.5241 21.4912 18.8896 19.9835 18.8896Z" fill="#BCD9E1"/>
</g>
</svg>
