<svg width="342" height="219" viewBox="0 0 342 219" fill="none" xmlns="http://www.w3.org/2000/svg">
<circle opacity="0.3" cx="171" cy="106" r="105.5" stroke="#303E4A"/>
<circle opacity="0.5" cx="171" cy="106" r="68.5" stroke="#303E4A"/>
<circle cx="171" cy="106" r="42" stroke="#303E4A"/>
<path opacity="0.2" d="M175.393 84.2702C174.998 83.5797 174.43 83.0065 173.746 82.6081C173.063 82.2097 172.289 82 171.5 82C170.711 82 169.937 82.2097 169.254 82.6081C168.57 83.0065 168.002 83.5797 167.607 84.2702L149.603 116.165C149.208 116.858 149 117.643 149 118.442C149 119.242 149.207 120.027 149.602 120.72C149.996 121.412 150.564 121.988 151.247 122.388C151.931 122.788 152.707 122.999 153.496 123H189.504C190.293 122.999 191.069 122.788 191.753 122.388C192.436 121.988 193.004 121.412 193.398 120.72C193.793 120.027 194 119.242 194 118.442C194 117.643 193.792 116.858 193.397 116.165L175.393 84.2702Z" stroke="#AABEC5" stroke-linecap="round" stroke-linejoin="round"/>
<path opacity="0.3" d="M174.596 92.495C174.332 92.0403 173.953 91.6628 173.498 91.4005C173.042 91.1381 172.526 91 172 91C171.474 91 170.958 91.1381 170.502 91.4005C170.047 91.6628 169.668 92.0403 169.404 92.495L157.402 113.499C157.139 113.955 157 114.472 157 114.999C157 115.525 157.138 116.042 157.401 116.498C157.664 116.954 158.043 117.333 158.498 117.597C158.954 117.86 159.471 117.999 159.998 118H184.002C184.529 117.999 185.046 117.86 185.502 117.597C185.957 117.333 186.336 116.954 186.599 116.498C186.862 116.042 187 115.525 187 114.999C187 114.472 186.861 113.955 186.598 113.499L174.596 92.495Z" stroke="#AABEC5" stroke-linecap="round" stroke-linejoin="round"/>
<path opacity="0.5" d="M173.384 99.7752C173.244 99.5394 173.042 99.3437 172.799 99.2077C172.556 99.0716 172.28 99 172 99C171.72 99 171.444 99.0716 171.201 99.2077C170.958 99.3437 170.756 99.5394 170.616 99.7752L164.214 110.666C164.074 110.903 164 111.171 164 111.444C164 111.717 164.074 111.985 164.214 112.221C164.354 112.458 164.556 112.654 164.799 112.791C165.042 112.928 165.318 113 165.599 113H178.401C178.682 113 178.958 112.928 179.201 112.791C179.444 112.654 179.646 112.458 179.786 112.221C179.926 111.985 180 111.717 180 111.444C180 111.171 179.926 110.903 179.786 110.666L173.384 99.7752Z" stroke="#AABEC5" stroke-linecap="round" stroke-linejoin="round"/>
<path d="M77.32 159.68V158.368H80.344C80.76 158.368 81.128 158.283 81.448 158.112C81.7787 157.941 82.0347 157.701 82.216 157.392C82.408 157.083 82.504 156.715 82.504 156.288C82.504 155.861 82.408 155.493 82.216 155.184C82.0347 154.875 81.7787 154.635 81.448 154.464C81.128 154.293 80.76 154.208 80.344 154.208H77.32V152.896H80.44C81.1227 152.896 81.7307 153.035 82.264 153.312C82.808 153.589 83.2347 153.984 83.544 154.496C83.864 154.997 84.024 155.595 84.024 156.288C84.024 156.971 83.864 157.568 83.544 158.08C83.2347 158.581 82.808 158.976 82.264 159.264C81.7307 159.541 81.1227 159.68 80.44 159.68H77.32ZM76.312 164V152.896H77.816V164H76.312ZM85.7591 164V152.576H87.1991V164H85.7591ZM92.826 164.16C92.0687 164.16 91.386 163.989 90.778 163.648C90.17 163.296 89.69 162.821 89.338 162.224C88.986 161.627 88.81 160.949 88.81 160.192C88.81 159.445 88.9807 158.773 89.322 158.176C89.674 157.579 90.1433 157.109 90.73 156.768C91.3273 156.416 91.994 156.24 92.73 156.24C93.434 156.24 94.0527 156.4 94.586 156.72C95.13 157.04 95.5513 157.483 95.85 158.048C96.1593 158.613 96.314 159.253 96.314 159.968C96.314 160.075 96.3087 160.192 96.298 160.32C96.2873 160.437 96.266 160.576 96.234 160.736H89.818V159.536H95.466L94.938 160C94.938 159.488 94.8473 159.056 94.666 158.704C94.4847 158.341 94.2287 158.064 93.898 157.872C93.5673 157.669 93.1673 157.568 92.698 157.568C92.2073 157.568 91.7753 157.675 91.402 157.888C91.0287 158.101 90.7407 158.4 90.538 158.784C90.3353 159.168 90.234 159.621 90.234 160.144C90.234 160.677 90.3407 161.147 90.554 161.552C90.7673 161.947 91.0713 162.256 91.466 162.48C91.8607 162.693 92.314 162.8 92.826 162.8C93.2527 162.8 93.642 162.725 93.994 162.576C94.3567 162.427 94.666 162.203 94.922 161.904L95.85 162.848C95.4873 163.275 95.0393 163.6 94.506 163.824C93.9833 164.048 93.4233 164.16 92.826 164.16ZM101.116 164.16C100.423 164.16 99.7935 163.989 99.2281 163.648C98.6628 163.296 98.2148 162.821 97.8841 162.224C97.5641 161.627 97.4041 160.955 97.4041 160.208C97.4041 159.461 97.5641 158.789 97.8841 158.192C98.2148 157.595 98.6575 157.12 99.2121 156.768C99.7775 156.416 100.412 156.24 101.116 156.24C101.692 156.24 102.204 156.363 102.652 156.608C103.111 156.843 103.479 157.173 103.756 157.6C104.033 158.016 104.188 158.501 104.22 159.056V161.344C104.188 161.888 104.033 162.373 103.756 162.8C103.489 163.227 103.127 163.563 102.668 163.808C102.22 164.043 101.703 164.16 101.116 164.16ZM101.356 162.8C102.071 162.8 102.647 162.56 103.084 162.08C103.521 161.589 103.74 160.965 103.74 160.208C103.74 159.685 103.639 159.232 103.436 158.848C103.244 158.453 102.967 158.149 102.604 157.936C102.241 157.712 101.82 157.6 101.34 157.6C100.86 157.6 100.433 157.712 100.06 157.936C99.6975 158.16 99.4095 158.469 99.1961 158.864C98.9935 159.248 98.8921 159.691 98.8921 160.192C98.8921 160.704 98.9935 161.157 99.1961 161.552C99.4095 161.936 99.7028 162.24 100.076 162.464C100.449 162.688 100.876 162.8 101.356 162.8ZM103.644 164V161.952L103.916 160.096L103.644 158.256V156.4H105.1V164H103.644ZM109.613 164.16C109.186 164.16 108.781 164.107 108.397 164C108.023 163.883 107.677 163.723 107.357 163.52C107.037 163.307 106.759 163.056 106.525 162.768L107.453 161.84C107.73 162.181 108.05 162.437 108.413 162.608C108.775 162.768 109.181 162.848 109.629 162.848C110.077 162.848 110.423 162.773 110.669 162.624C110.914 162.464 111.037 162.245 111.037 161.968C111.037 161.691 110.935 161.477 110.733 161.328C110.541 161.168 110.29 161.04 109.981 160.944C109.671 160.837 109.341 160.736 108.989 160.64C108.647 160.533 108.322 160.4 108.013 160.24C107.703 160.08 107.447 159.861 107.245 159.584C107.053 159.307 106.957 158.939 106.957 158.48C106.957 158.021 107.069 157.627 107.293 157.296C107.517 156.955 107.826 156.693 108.221 156.512C108.626 156.331 109.111 156.24 109.677 156.24C110.274 156.24 110.802 156.347 111.261 156.56C111.73 156.763 112.114 157.072 112.413 157.488L111.485 158.416C111.271 158.139 111.005 157.925 110.685 157.776C110.375 157.627 110.023 157.552 109.629 157.552C109.213 157.552 108.893 157.627 108.669 157.776C108.455 157.915 108.349 158.112 108.349 158.368C108.349 158.624 108.445 158.821 108.637 158.96C108.829 159.099 109.079 159.216 109.389 159.312C109.709 159.408 110.039 159.509 110.381 159.616C110.722 159.712 111.047 159.845 111.357 160.016C111.666 160.187 111.917 160.416 112.109 160.704C112.311 160.992 112.413 161.371 112.413 161.84C112.413 162.555 112.157 163.12 111.645 163.536C111.143 163.952 110.466 164.16 109.613 164.16ZM117.545 164.16C116.787 164.16 116.105 163.989 115.497 163.648C114.889 163.296 114.409 162.821 114.057 162.224C113.705 161.627 113.529 160.949 113.529 160.192C113.529 159.445 113.699 158.773 114.041 158.176C114.393 157.579 114.862 157.109 115.449 156.768C116.046 156.416 116.713 156.24 117.449 156.24C118.153 156.24 118.771 156.4 119.305 156.72C119.849 157.04 120.27 157.483 120.569 158.048C120.878 158.613 121.033 159.253 121.033 159.968C121.033 160.075 121.027 160.192 121.017 160.32C121.006 160.437 120.985 160.576 120.953 160.736H114.537V159.536H120.185L119.657 160C119.657 159.488 119.566 159.056 119.385 158.704C119.203 158.341 118.947 158.064 118.617 157.872C118.286 157.669 117.886 157.568 117.417 157.568C116.926 157.568 116.494 157.675 116.121 157.888C115.747 158.101 115.459 158.4 115.257 158.784C115.054 159.168 114.953 159.621 114.953 160.144C114.953 160.677 115.059 161.147 115.273 161.552C115.486 161.947 115.79 162.256 116.185 162.48C116.579 162.693 117.033 162.8 117.545 162.8C117.971 162.8 118.361 162.725 118.713 162.576C119.075 162.427 119.385 162.203 119.641 161.904L120.569 162.848C120.206 163.275 119.758 163.6 119.225 163.824C118.702 164.048 118.142 164.16 117.545 164.16ZM128.347 164.16C127.92 164.16 127.515 164.107 127.131 164C126.758 163.883 126.411 163.723 126.091 163.52C125.771 163.307 125.494 163.056 125.259 162.768L126.187 161.84C126.464 162.181 126.784 162.437 127.147 162.608C127.51 162.768 127.915 162.848 128.363 162.848C128.811 162.848 129.158 162.773 129.403 162.624C129.648 162.464 129.771 162.245 129.771 161.968C129.771 161.691 129.67 161.477 129.467 161.328C129.275 161.168 129.024 161.04 128.715 160.944C128.406 160.837 128.075 160.736 127.723 160.64C127.382 160.533 127.056 160.4 126.747 160.24C126.438 160.08 126.182 159.861 125.979 159.584C125.787 159.307 125.691 158.939 125.691 158.48C125.691 158.021 125.803 157.627 126.027 157.296C126.251 156.955 126.56 156.693 126.955 156.512C127.36 156.331 127.846 156.24 128.411 156.24C129.008 156.24 129.536 156.347 129.995 156.56C130.464 156.763 130.848 157.072 131.147 157.488L130.219 158.416C130.006 158.139 129.739 157.925 129.419 157.776C129.11 157.627 128.758 157.552 128.363 157.552C127.947 157.552 127.627 157.627 127.403 157.776C127.19 157.915 127.083 158.112 127.083 158.368C127.083 158.624 127.179 158.821 127.371 158.96C127.563 159.099 127.814 159.216 128.123 159.312C128.443 159.408 128.774 159.509 129.115 159.616C129.456 159.712 129.782 159.845 130.091 160.016C130.4 160.187 130.651 160.416 130.843 160.704C131.046 160.992 131.147 161.371 131.147 161.84C131.147 162.555 130.891 163.12 130.379 163.536C129.878 163.952 129.2 164.16 128.347 164.16ZM136.279 164.16C135.522 164.16 134.839 163.989 134.231 163.648C133.623 163.296 133.143 162.821 132.791 162.224C132.439 161.627 132.263 160.949 132.263 160.192C132.263 159.445 132.434 158.773 132.775 158.176C133.127 157.579 133.596 157.109 134.183 156.768C134.78 156.416 135.447 156.24 136.183 156.24C136.887 156.24 137.506 156.4 138.039 156.72C138.583 157.04 139.004 157.483 139.303 158.048C139.612 158.613 139.767 159.253 139.767 159.968C139.767 160.075 139.762 160.192 139.751 160.32C139.74 160.437 139.719 160.576 139.687 160.736H133.271V159.536H138.919L138.391 160C138.391 159.488 138.3 159.056 138.119 158.704C137.938 158.341 137.682 158.064 137.351 157.872C137.02 157.669 136.62 157.568 136.151 157.568C135.66 157.568 135.228 157.675 134.855 157.888C134.482 158.101 134.194 158.4 133.991 158.784C133.788 159.168 133.687 159.621 133.687 160.144C133.687 160.677 133.794 161.147 134.007 161.552C134.22 161.947 134.524 162.256 134.919 162.48C135.314 162.693 135.767 162.8 136.279 162.8C136.706 162.8 137.095 162.725 137.447 162.576C137.81 162.427 138.119 162.203 138.375 161.904L139.303 162.848C138.94 163.275 138.492 163.6 137.959 163.824C137.436 164.048 136.876 164.16 136.279 164.16ZM141.337 164V152.576H142.777V164H141.337ZM148.404 164.16C147.647 164.16 146.964 163.989 146.356 163.648C145.748 163.296 145.268 162.821 144.916 162.224C144.564 161.627 144.388 160.949 144.388 160.192C144.388 159.445 144.559 158.773 144.9 158.176C145.252 157.579 145.721 157.109 146.308 156.768C146.905 156.416 147.572 156.24 148.308 156.24C149.012 156.24 149.631 156.4 150.164 156.72C150.708 157.04 151.129 157.483 151.428 158.048C151.737 158.613 151.892 159.253 151.892 159.968C151.892 160.075 151.887 160.192 151.876 160.32C151.865 160.437 151.844 160.576 151.812 160.736H145.396V159.536H151.044L150.516 160C150.516 159.488 150.425 159.056 150.244 158.704C150.063 158.341 149.807 158.064 149.476 157.872C149.145 157.669 148.745 157.568 148.276 157.568C147.785 157.568 147.353 157.675 146.98 157.888C146.607 158.101 146.319 158.4 146.116 158.784C145.913 159.168 145.812 159.621 145.812 160.144C145.812 160.677 145.919 161.147 146.132 161.552C146.345 161.947 146.649 162.256 147.044 162.48C147.439 162.693 147.892 162.8 148.404 162.8C148.831 162.8 149.22 162.725 149.572 162.576C149.935 162.427 150.244 162.203 150.5 161.904L151.428 162.848C151.065 163.275 150.617 163.6 150.084 163.824C149.561 164.048 149.001 164.16 148.404 164.16ZM156.934 164.16C156.188 164.16 155.51 163.984 154.902 163.632C154.305 163.28 153.83 162.805 153.478 162.208C153.137 161.6 152.966 160.928 152.966 160.192C152.966 159.445 153.137 158.773 153.478 158.176C153.83 157.579 154.305 157.109 154.902 156.768C155.51 156.416 156.188 156.24 156.934 156.24C157.521 156.24 158.065 156.352 158.566 156.576C159.068 156.789 159.5 157.104 159.862 157.52L158.902 158.48C158.668 158.203 158.38 157.995 158.038 157.856C157.708 157.707 157.34 157.632 156.934 157.632C156.454 157.632 156.028 157.744 155.654 157.968C155.281 158.181 154.988 158.48 154.774 158.864C154.561 159.248 154.454 159.691 154.454 160.192C154.454 160.693 154.561 161.136 154.774 161.52C154.988 161.904 155.281 162.208 155.654 162.432C156.028 162.656 156.454 162.768 156.934 162.768C157.34 162.768 157.708 162.699 158.038 162.56C158.38 162.411 158.673 162.197 158.918 161.92L159.862 162.88C159.51 163.285 159.078 163.6 158.566 163.824C158.065 164.048 157.521 164.16 156.934 164.16ZM162.365 164V153.216H163.805V164H162.365ZM160.493 157.712V156.4H165.677V157.712H160.493ZM173.647 164.16C172.954 164.16 172.325 163.989 171.759 163.648C171.194 163.296 170.746 162.821 170.415 162.224C170.095 161.627 169.935 160.955 169.935 160.208C169.935 159.461 170.095 158.789 170.415 158.192C170.746 157.595 171.189 157.12 171.743 156.768C172.309 156.416 172.943 156.24 173.647 156.24C174.223 156.24 174.735 156.363 175.183 156.608C175.642 156.843 176.01 157.173 176.287 157.6C176.565 158.016 176.719 158.501 176.751 159.056V161.344C176.719 161.888 176.565 162.373 176.287 162.8C176.021 163.227 175.658 163.563 175.199 163.808C174.751 164.043 174.234 164.16 173.647 164.16ZM173.887 162.8C174.602 162.8 175.178 162.56 175.615 162.08C176.053 161.589 176.271 160.965 176.271 160.208C176.271 159.685 176.17 159.232 175.967 158.848C175.775 158.453 175.498 158.149 175.135 157.936C174.773 157.712 174.351 157.6 173.871 157.6C173.391 157.6 172.965 157.712 172.591 157.936C172.229 158.16 171.941 158.469 171.727 158.864C171.525 159.248 171.423 159.691 171.423 160.192C171.423 160.704 171.525 161.157 171.727 161.552C171.941 161.936 172.234 162.24 172.607 162.464C172.981 162.688 173.407 162.8 173.887 162.8ZM176.175 164V161.952L176.447 160.096L176.175 158.256V156.4H177.631V164H176.175ZM185.104 164V159.568C185.104 158.992 184.923 158.517 184.56 158.144C184.197 157.771 183.728 157.584 183.152 157.584C182.768 157.584 182.427 157.669 182.128 157.84C181.829 158.011 181.595 158.245 181.424 158.544C181.253 158.843 181.168 159.184 181.168 159.568L180.576 159.232C180.576 158.656 180.704 158.144 180.96 157.696C181.216 157.248 181.573 156.896 182.032 156.64C182.491 156.373 183.008 156.24 183.584 156.24C184.16 156.24 184.667 156.384 185.104 156.672C185.552 156.96 185.904 157.339 186.16 157.808C186.416 158.267 186.544 158.757 186.544 159.28V164H185.104ZM179.728 164V156.4H181.168V164H179.728ZM195.294 164.16C194.547 164.16 193.875 163.984 193.278 163.632C192.68 163.28 192.206 162.805 191.854 162.208C191.502 161.6 191.326 160.923 191.326 160.176C191.326 159.44 191.502 158.779 191.854 158.192C192.206 157.595 192.68 157.12 193.278 156.768C193.875 156.416 194.547 156.24 195.294 156.24C196.03 156.24 196.696 156.416 197.294 156.768C197.902 157.109 198.382 157.579 198.734 158.176C199.086 158.773 199.262 159.44 199.262 160.176C199.262 160.923 199.086 161.6 198.734 162.208C198.382 162.805 197.902 163.28 197.294 163.632C196.696 163.984 196.03 164.16 195.294 164.16ZM195.294 162.768C195.774 162.768 196.2 162.656 196.574 162.432C196.947 162.208 197.24 161.904 197.454 161.52C197.667 161.125 197.774 160.677 197.774 160.176C197.774 159.685 197.662 159.248 197.438 158.864C197.224 158.48 196.931 158.181 196.558 157.968C196.195 157.744 195.774 157.632 195.294 157.632C194.814 157.632 194.387 157.744 194.014 157.968C193.64 158.181 193.347 158.48 193.134 158.864C192.92 159.248 192.814 159.685 192.814 160.176C192.814 160.677 192.92 161.125 193.134 161.52C193.347 161.904 193.64 162.208 194.014 162.432C194.387 162.656 194.814 162.768 195.294 162.768ZM204.884 164.16C204.308 164.16 203.785 164.043 203.316 163.808C202.857 163.563 202.489 163.227 202.212 162.8C201.935 162.373 201.78 161.888 201.748 161.344V159.056C201.78 158.501 201.935 158.016 202.212 157.6C202.5 157.173 202.873 156.843 203.332 156.608C203.801 156.363 204.319 156.24 204.884 156.24C205.577 156.24 206.201 156.416 206.756 156.768C207.321 157.12 207.764 157.595 208.084 158.192C208.404 158.789 208.564 159.461 208.564 160.208C208.564 160.955 208.404 161.627 208.084 162.224C207.764 162.821 207.321 163.296 206.756 163.648C206.201 163.989 205.577 164.16 204.884 164.16ZM200.884 164V152.576H202.324V158.256L202.052 160.096L202.324 161.952V164H200.884ZM204.644 162.8C205.124 162.8 205.545 162.688 205.908 162.464C206.271 162.24 206.559 161.936 206.772 161.552C206.985 161.157 207.092 160.704 207.092 160.192C207.092 159.691 206.985 159.243 206.772 158.848C206.559 158.453 206.271 158.149 205.908 157.936C205.545 157.712 205.129 157.6 204.66 157.6C204.18 157.6 203.759 157.712 203.396 157.936C203.033 158.149 202.751 158.453 202.548 158.848C202.345 159.243 202.244 159.696 202.244 160.208C202.244 160.709 202.34 161.157 202.532 161.552C202.735 161.936 203.017 162.24 203.38 162.464C203.753 162.688 204.175 162.8 204.644 162.8ZM209.237 167.344C208.746 167.344 208.335 167.264 208.005 167.104C207.663 166.944 207.359 166.715 207.093 166.416L208.021 165.472C208.17 165.653 208.335 165.787 208.517 165.872C208.687 165.957 208.895 166 209.141 166C209.461 166 209.738 165.899 209.973 165.696C210.207 165.504 210.325 165.211 210.325 164.816V156.4H211.765V164.8C211.765 165.355 211.647 165.819 211.413 166.192C211.178 166.565 210.869 166.848 210.485 167.04C210.101 167.243 209.685 167.344 209.237 167.344ZM211.061 154.88C210.805 154.88 210.591 154.795 210.421 154.624C210.25 154.443 210.165 154.219 210.165 153.952C210.165 153.696 210.25 153.483 210.421 153.312C210.591 153.131 210.805 153.04 211.061 153.04C211.327 153.04 211.546 153.131 211.717 153.312C211.887 153.483 211.973 153.696 211.973 153.952C211.973 154.219 211.887 154.443 211.717 154.624C211.546 154.795 211.327 154.88 211.061 154.88ZM217.404 164.16C216.647 164.16 215.964 163.989 215.356 163.648C214.748 163.296 214.268 162.821 213.916 162.224C213.564 161.627 213.388 160.949 213.388 160.192C213.388 159.445 213.559 158.773 213.9 158.176C214.252 157.579 214.721 157.109 215.308 156.768C215.905 156.416 216.572 156.24 217.308 156.24C218.012 156.24 218.631 156.4 219.164 156.72C219.708 157.04 220.129 157.483 220.428 158.048C220.737 158.613 220.892 159.253 220.892 159.968C220.892 160.075 220.887 160.192 220.876 160.32C220.865 160.437 220.844 160.576 220.812 160.736H214.396V159.536H220.044L219.516 160C219.516 159.488 219.425 159.056 219.244 158.704C219.063 158.341 218.807 158.064 218.476 157.872C218.145 157.669 217.745 157.568 217.276 157.568C216.785 157.568 216.353 157.675 215.98 157.888C215.607 158.101 215.319 158.4 215.116 158.784C214.913 159.168 214.812 159.621 214.812 160.144C214.812 160.677 214.919 161.147 215.132 161.552C215.345 161.947 215.649 162.256 216.044 162.48C216.439 162.693 216.892 162.8 217.404 162.8C217.831 162.8 218.22 162.725 218.572 162.576C218.935 162.427 219.244 162.203 219.5 161.904L220.428 162.848C220.065 163.275 219.617 163.6 219.084 163.824C218.561 164.048 218.001 164.16 217.404 164.16ZM225.934 164.16C225.188 164.16 224.51 163.984 223.902 163.632C223.305 163.28 222.83 162.805 222.478 162.208C222.137 161.6 221.966 160.928 221.966 160.192C221.966 159.445 222.137 158.773 222.478 158.176C222.83 157.579 223.305 157.109 223.902 156.768C224.51 156.416 225.188 156.24 225.934 156.24C226.521 156.24 227.065 156.352 227.566 156.576C228.068 156.789 228.5 157.104 228.862 157.52L227.902 158.48C227.668 158.203 227.38 157.995 227.038 157.856C226.708 157.707 226.34 157.632 225.934 157.632C225.454 157.632 225.028 157.744 224.654 157.968C224.281 158.181 223.988 158.48 223.774 158.864C223.561 159.248 223.454 159.691 223.454 160.192C223.454 160.693 223.561 161.136 223.774 161.52C223.988 161.904 224.281 162.208 224.654 162.432C225.028 162.656 225.454 162.768 225.934 162.768C226.34 162.768 226.708 162.699 227.038 162.56C227.38 162.411 227.673 162.197 227.918 161.92L228.862 162.88C228.51 163.285 228.078 163.6 227.566 163.824C227.065 164.048 226.521 164.16 225.934 164.16ZM231.365 164V153.216H232.805V164H231.365ZM229.493 157.712V156.4H234.677V157.712H229.493ZM240.503 164V155.024C240.503 154.523 240.61 154.08 240.823 153.696C241.047 153.301 241.357 152.992 241.751 152.768C242.146 152.533 242.599 152.416 243.111 152.416C243.506 152.416 243.853 152.485 244.151 152.624C244.45 152.752 244.727 152.933 244.983 153.168L244.039 154.112C243.901 153.995 243.757 153.909 243.607 153.856C243.458 153.792 243.293 153.76 243.111 153.76C242.738 153.76 242.45 153.877 242.247 154.112C242.045 154.336 241.943 154.64 241.943 155.024V164H240.503ZM238.631 157.712V156.4H245.847V157.712H238.631ZM245.015 164V156.4H246.471V164H245.015ZM245.735 155.6C245.479 155.6 245.266 155.515 245.095 155.344C244.925 155.163 244.839 154.939 244.839 154.672C244.839 154.416 244.925 154.203 245.095 154.032C245.266 153.851 245.479 153.76 245.735 153.76C246.013 153.76 246.231 153.851 246.391 154.032C246.562 154.203 246.647 154.416 246.647 154.672C246.647 154.939 246.562 155.163 246.391 155.344C246.231 155.515 246.013 155.6 245.735 155.6ZM248.587 164V156.4H250.027V164H248.587ZM250.027 159.664L249.483 159.424C249.483 158.453 249.707 157.68 250.155 157.104C250.603 156.528 251.249 156.24 252.091 156.24C252.475 156.24 252.822 156.309 253.131 156.448C253.441 156.576 253.729 156.795 253.995 157.104L253.051 158.08C252.891 157.909 252.715 157.787 252.523 157.712C252.331 157.637 252.107 157.6 251.851 157.6C251.318 157.6 250.881 157.771 250.539 158.112C250.198 158.453 250.027 158.971 250.027 159.664ZM257.253 164.16C256.827 164.16 256.421 164.107 256.037 164C255.664 163.883 255.317 163.723 254.997 163.52C254.677 163.307 254.4 163.056 254.165 162.768L255.093 161.84C255.371 162.181 255.691 162.437 256.053 162.608C256.416 162.768 256.821 162.848 257.269 162.848C257.717 162.848 258.064 162.773 258.309 162.624C258.555 162.464 258.677 162.245 258.677 161.968C258.677 161.691 258.576 161.477 258.373 161.328C258.181 161.168 257.931 161.04 257.621 160.944C257.312 160.837 256.981 160.736 256.629 160.64C256.288 160.533 255.963 160.4 255.653 160.24C255.344 160.08 255.088 159.861 254.885 159.584C254.693 159.307 254.597 158.939 254.597 158.48C254.597 158.021 254.709 157.627 254.933 157.296C255.157 156.955 255.467 156.693 255.861 156.512C256.267 156.331 256.752 156.24 257.317 156.24C257.915 156.24 258.443 156.347 258.901 156.56C259.371 156.763 259.755 157.072 260.053 157.488L259.125 158.416C258.912 158.139 258.645 157.925 258.325 157.776C258.016 157.627 257.664 157.552 257.269 157.552C256.853 157.552 256.533 157.627 256.309 157.776C256.096 157.915 255.989 158.112 255.989 158.368C255.989 158.624 256.085 158.821 256.277 158.96C256.469 159.099 256.72 159.216 257.029 159.312C257.349 159.408 257.68 159.509 258.021 159.616C258.363 159.712 258.688 159.845 258.997 160.016C259.307 160.187 259.557 160.416 259.749 160.704C259.952 160.992 260.053 161.371 260.053 161.84C260.053 162.555 259.797 163.12 259.285 163.536C258.784 163.952 258.107 164.16 257.253 164.16ZM262.833 164V153.216H264.273V164H262.833ZM260.961 157.712V156.4H266.145V157.712H260.961Z" fill="#CDFAEE"/>
<path d="M25.4761 192V182.284H26.7921V192H25.4761ZM26.3721 192V190.796H31.5801V192H26.3721ZM32.9907 192V185.35H34.2507V192H32.9907ZM33.6207 184.02C33.3874 184.02 33.1961 183.945 33.0467 183.796C32.8974 183.637 32.8227 183.441 32.8227 183.208C32.8227 182.984 32.8974 182.797 33.0467 182.648C33.1961 182.489 33.3874 182.41 33.6207 182.41C33.8541 182.41 34.0454 182.489 34.1947 182.648C34.3441 182.797 34.4187 182.984 34.4187 183.208C34.4187 183.441 34.3441 183.637 34.1947 183.796C34.0454 183.945 33.8541 184.02 33.6207 184.02ZM38.2216 192.14C37.8483 192.14 37.4936 192.093 37.1576 192C36.8309 191.897 36.5276 191.757 36.2476 191.58C35.9676 191.393 35.7249 191.174 35.5196 190.922L36.3316 190.11C36.5743 190.409 36.8543 190.633 37.1716 190.782C37.4889 190.922 37.8436 190.992 38.2356 190.992C38.6276 190.992 38.9309 190.927 39.1456 190.796C39.3603 190.656 39.4676 190.465 39.4676 190.222C39.4676 189.979 39.3789 189.793 39.2016 189.662C39.0336 189.522 38.8143 189.41 38.5436 189.326C38.2729 189.233 37.9836 189.144 37.6756 189.06C37.3769 188.967 37.0923 188.85 36.8216 188.71C36.5509 188.57 36.3269 188.379 36.1496 188.136C35.9816 187.893 35.8976 187.571 35.8976 187.17C35.8976 186.769 35.9956 186.423 36.1916 186.134C36.3876 185.835 36.6583 185.607 37.0036 185.448C37.3583 185.289 37.7829 185.21 38.2776 185.21C38.8003 185.21 39.2623 185.303 39.6636 185.49C40.0743 185.667 40.4103 185.938 40.6716 186.302L39.8596 187.114C39.6729 186.871 39.4396 186.685 39.1596 186.554C38.8889 186.423 38.5809 186.358 38.2356 186.358C37.8716 186.358 37.5916 186.423 37.3956 186.554C37.2089 186.675 37.1156 186.848 37.1156 187.072C37.1156 187.296 37.1996 187.469 37.3676 187.59C37.5356 187.711 37.7549 187.814 38.0256 187.898C38.3056 187.982 38.5949 188.071 38.8936 188.164C39.1923 188.248 39.4769 188.365 39.7476 188.514C40.0183 188.663 40.2376 188.864 40.4056 189.116C40.5829 189.368 40.6716 189.699 40.6716 190.11C40.6716 190.735 40.4476 191.23 39.9996 191.594C39.5609 191.958 38.9683 192.14 38.2216 192.14ZM43.1042 192V182.564H44.3642V192H43.1042ZM41.4662 186.498V185.35H46.0022V186.498H41.4662ZM53.1866 192.14C52.5333 192.14 51.9453 191.986 51.4226 191.678C50.8999 191.37 50.4846 190.955 50.1766 190.432C49.8686 189.9 49.7146 189.307 49.7146 188.654C49.7146 188.01 49.8686 187.431 50.1766 186.918C50.4846 186.395 50.8999 185.98 51.4226 185.672C51.9453 185.364 52.5333 185.21 53.1866 185.21C53.8306 185.21 54.4139 185.364 54.9366 185.672C55.4686 185.971 55.8886 186.381 56.1966 186.904C56.5046 187.427 56.6586 188.01 56.6586 188.654C56.6586 189.307 56.5046 189.9 56.1966 190.432C55.8886 190.955 55.4686 191.37 54.9366 191.678C54.4139 191.986 53.8306 192.14 53.1866 192.14ZM53.1866 190.922C53.6066 190.922 53.9799 190.824 54.3066 190.628C54.6333 190.432 54.8899 190.166 55.0766 189.83C55.2633 189.485 55.3566 189.093 55.3566 188.654C55.3566 188.225 55.2586 187.842 55.0626 187.506C54.8759 187.17 54.6193 186.909 54.2926 186.722C53.9753 186.526 53.6066 186.428 53.1866 186.428C52.7666 186.428 52.3933 186.526 52.0666 186.722C51.7399 186.909 51.4833 187.17 51.2966 187.506C51.1099 187.842 51.0166 188.225 51.0166 188.654C51.0166 189.093 51.1099 189.485 51.2966 189.83C51.4833 190.166 51.7399 190.432 52.0666 190.628C52.3933 190.824 52.7666 190.922 53.1866 190.922ZM58.8252 192V184.356C58.8252 183.861 58.9326 183.432 59.1472 183.068C59.3619 182.695 59.6559 182.401 60.0292 182.186C60.4119 181.971 60.8552 181.864 61.3592 181.864C61.7419 181.864 62.0732 181.929 62.3532 182.06C62.6332 182.191 62.8899 182.382 63.1232 182.634L62.2972 183.446C62.1759 183.315 62.0406 183.217 61.8912 183.152C61.7419 183.077 61.5599 183.04 61.3452 183.04C60.9439 183.04 60.6312 183.157 60.4072 183.39C60.1926 183.623 60.0852 183.945 60.0852 184.356V192H58.8252ZM57.1872 186.498V185.35H62.1992V186.498H57.1872ZM69.4151 192.14C68.7618 192.14 68.1738 191.986 67.6511 191.678C67.1285 191.37 66.7131 190.955 66.4051 190.432C66.0971 189.9 65.9431 189.307 65.9431 188.654C65.9431 188.01 66.0971 187.431 66.4051 186.918C66.7131 186.395 67.1285 185.98 67.6511 185.672C68.1738 185.364 68.7618 185.21 69.4151 185.21C70.0591 185.21 70.6425 185.364 71.1651 185.672C71.6971 185.971 72.1171 186.381 72.4251 186.904C72.7331 187.427 72.8871 188.01 72.8871 188.654C72.8871 189.307 72.7331 189.9 72.4251 190.432C72.1171 190.955 71.6971 191.37 71.1651 191.678C70.6425 191.986 70.0591 192.14 69.4151 192.14ZM69.4151 190.922C69.8351 190.922 70.2085 190.824 70.5351 190.628C70.8618 190.432 71.1185 190.166 71.3051 189.83C71.4918 189.485 71.5851 189.093 71.5851 188.654C71.5851 188.225 71.4871 187.842 71.2911 187.506C71.1045 187.17 70.8478 186.909 70.5211 186.722C70.2038 186.526 69.8351 186.428 69.4151 186.428C68.9951 186.428 68.6218 186.526 68.2951 186.722C67.9685 186.909 67.7118 187.17 67.5251 187.506C67.3385 187.842 67.2451 188.225 67.2451 188.654C67.2451 189.093 67.3385 189.485 67.5251 189.83C67.7118 190.166 67.9685 190.432 68.2951 190.628C68.6218 190.824 68.9951 190.922 69.4151 190.922ZM77.8068 192.14C77.3028 192.14 76.8455 192.037 76.4348 191.832C76.0335 191.617 75.7115 191.323 75.4688 190.95C75.2261 190.577 75.0908 190.152 75.0628 189.676V187.674C75.0908 187.189 75.2261 186.764 75.4688 186.4C75.7208 186.027 76.0475 185.737 76.4488 185.532C76.8595 185.317 77.3121 185.21 77.8068 185.21C78.4135 185.21 78.9595 185.364 79.4448 185.672C79.9395 185.98 80.3268 186.395 80.6068 186.918C80.8868 187.441 81.0268 188.029 81.0268 188.682C81.0268 189.335 80.8868 189.923 80.6068 190.446C80.3268 190.969 79.9395 191.384 79.4448 191.692C78.9595 191.991 78.4135 192.14 77.8068 192.14ZM74.3068 192V182.004H75.5668V186.974L75.3288 188.584L75.5668 190.208V192H74.3068ZM77.5968 190.95C78.0168 190.95 78.3855 190.852 78.7028 190.656C79.0201 190.46 79.2721 190.194 79.4588 189.858C79.6455 189.513 79.7388 189.116 79.7388 188.668C79.7388 188.229 79.6455 187.837 79.4588 187.492C79.2721 187.147 79.0201 186.881 78.7028 186.694C78.3855 186.498 78.0215 186.4 77.6108 186.4C77.1908 186.4 76.8221 186.498 76.5048 186.694C76.1875 186.881 75.9401 187.147 75.7628 187.492C75.5855 187.837 75.4968 188.234 75.4968 188.682C75.4968 189.121 75.5808 189.513 75.7488 189.858C75.9261 190.194 76.1735 190.46 76.4908 190.656C76.8175 190.852 77.1861 190.95 77.5968 190.95ZM81.6153 194.926C81.1859 194.926 80.8266 194.856 80.5372 194.716C80.2386 194.576 79.9726 194.375 79.7392 194.114L80.5512 193.288C80.6819 193.447 80.8266 193.563 80.9852 193.638C81.1346 193.713 81.3166 193.75 81.5312 193.75C81.8113 193.75 82.0539 193.661 82.2593 193.484C82.4646 193.316 82.5673 193.059 82.5673 192.714V185.35H83.8273V192.7C83.8273 193.185 83.7246 193.591 83.5193 193.918C83.3139 194.245 83.0433 194.492 82.7073 194.66C82.3713 194.837 82.0073 194.926 81.6153 194.926ZM83.2113 184.02C82.9873 184.02 82.8006 183.945 82.6513 183.796C82.5019 183.637 82.4273 183.441 82.4273 183.208C82.4273 182.984 82.5019 182.797 82.6513 182.648C82.8006 182.489 82.9873 182.41 83.2113 182.41C83.4446 182.41 83.6359 182.489 83.7853 182.648C83.9346 182.797 84.0093 182.984 84.0093 183.208C84.0093 183.441 83.9346 183.637 83.7853 183.796C83.6359 183.945 83.4446 184.02 83.2113 184.02ZM88.7618 192.14C88.0991 192.14 87.5018 191.991 86.9698 191.692C86.4378 191.384 86.0178 190.969 85.7098 190.446C85.4018 189.923 85.2478 189.331 85.2478 188.668C85.2478 188.015 85.3971 187.427 85.6958 186.904C86.0038 186.381 86.4145 185.971 86.9278 185.672C87.4505 185.364 88.0338 185.21 88.6778 185.21C89.2938 185.21 89.8351 185.35 90.3018 185.63C90.7778 185.91 91.1465 186.297 91.4078 186.792C91.6785 187.287 91.8138 187.847 91.8138 188.472C91.8138 188.565 91.8091 188.668 91.7998 188.78C91.7905 188.883 91.7718 189.004 91.7438 189.144H86.1298V188.094H91.0718L90.6098 188.5C90.6098 188.052 90.5305 187.674 90.3718 187.366C90.2131 187.049 89.9891 186.806 89.6998 186.638C89.4105 186.461 89.0605 186.372 88.6498 186.372C88.2205 186.372 87.8425 186.465 87.5158 186.652C87.1891 186.839 86.9371 187.1 86.7598 187.436C86.5825 187.772 86.4938 188.169 86.4938 188.626C86.4938 189.093 86.5871 189.503 86.7738 189.858C86.9605 190.203 87.2265 190.474 87.5718 190.67C87.9171 190.857 88.3138 190.95 88.7618 190.95C89.1351 190.95 89.4758 190.885 89.7838 190.754C90.1011 190.623 90.3718 190.427 90.5958 190.166L91.4078 190.992C91.0905 191.365 90.6985 191.65 90.2318 191.846C89.7745 192.042 89.2845 192.14 88.7618 192.14ZM96.2257 192.14C95.5723 192.14 94.9797 191.986 94.4477 191.678C93.925 191.37 93.5097 190.955 93.2017 190.432C92.903 189.9 92.7537 189.312 92.7537 188.668C92.7537 188.015 92.903 187.427 93.2017 186.904C93.5097 186.381 93.925 185.971 94.4477 185.672C94.9797 185.364 95.5723 185.21 96.2257 185.21C96.739 185.21 97.215 185.308 97.6537 185.504C98.0923 185.691 98.4703 185.966 98.7877 186.33L97.9477 187.17C97.7423 186.927 97.4903 186.745 97.1917 186.624C96.9023 186.493 96.5803 186.428 96.2257 186.428C95.8057 186.428 95.4323 186.526 95.1057 186.722C94.779 186.909 94.5223 187.17 94.3357 187.506C94.149 187.842 94.0557 188.229 94.0557 188.668C94.0557 189.107 94.149 189.494 94.3357 189.83C94.5223 190.166 94.779 190.432 95.1057 190.628C95.4323 190.824 95.8057 190.922 96.2257 190.922C96.5803 190.922 96.9023 190.861 97.1917 190.74C97.4903 190.609 97.747 190.423 97.9617 190.18L98.7877 191.02C98.4797 191.375 98.1017 191.65 97.6537 191.846C97.215 192.042 96.739 192.14 96.2257 192.14ZM100.977 192V182.564H102.237V192H100.977ZM99.3393 186.498V185.35H103.875V186.498H99.3393ZM107.087 192.14C106.713 192.14 106.359 192.093 106.023 192C105.696 191.897 105.393 191.757 105.113 191.58C104.833 191.393 104.59 191.174 104.385 190.922L105.197 190.11C105.439 190.409 105.719 190.633 106.037 190.782C106.354 190.922 106.709 190.992 107.101 190.992C107.493 190.992 107.796 190.927 108.011 190.796C108.225 190.656 108.333 190.465 108.333 190.222C108.333 189.979 108.244 189.793 108.067 189.662C107.899 189.522 107.679 189.41 107.409 189.326C107.138 189.233 106.849 189.144 106.541 189.06C106.242 188.967 105.957 188.85 105.687 188.71C105.416 188.57 105.192 188.379 105.015 188.136C104.847 187.893 104.763 187.571 104.763 187.17C104.763 186.769 104.861 186.423 105.057 186.134C105.253 185.835 105.523 185.607 105.869 185.448C106.223 185.289 106.648 185.21 107.143 185.21C107.665 185.21 108.127 185.303 108.529 185.49C108.939 185.667 109.275 185.938 109.537 186.302L108.725 187.114C108.538 186.871 108.305 186.685 108.025 186.554C107.754 186.423 107.446 186.358 107.101 186.358C106.737 186.358 106.457 186.423 106.261 186.554C106.074 186.675 105.981 186.848 105.981 187.072C105.981 187.296 106.065 187.469 106.233 187.59C106.401 187.711 106.62 187.814 106.891 187.898C107.171 187.982 107.46 188.071 107.759 188.164C108.057 188.248 108.342 188.365 108.613 188.514C108.883 188.663 109.103 188.864 109.271 189.116C109.448 189.368 109.537 189.699 109.537 190.11C109.537 190.735 109.313 191.23 108.865 191.594C108.426 191.958 107.833 192.14 107.087 192.14ZM116.044 192.056L113.16 185.35H114.56L116.702 190.6H116.254L118.508 185.35H119.908L116.8 192.056H116.044ZM114.14 194.786L116.1 190.768L116.8 192.056L115.54 194.786H114.14ZM123.72 192.14C123.066 192.14 122.478 191.986 121.956 191.678C121.433 191.37 121.018 190.955 120.71 190.432C120.402 189.9 120.248 189.307 120.248 188.654C120.248 188.01 120.402 187.431 120.71 186.918C121.018 186.395 121.433 185.98 121.956 185.672C122.478 185.364 123.066 185.21 123.72 185.21C124.364 185.21 124.947 185.364 125.47 185.672C126.002 185.971 126.422 186.381 126.73 186.904C127.038 187.427 127.192 188.01 127.192 188.654C127.192 189.307 127.038 189.9 126.73 190.432C126.422 190.955 126.002 191.37 125.47 191.678C124.947 191.986 124.364 192.14 123.72 192.14ZM123.72 190.922C124.14 190.922 124.513 190.824 124.84 190.628C125.166 190.432 125.423 190.166 125.61 189.83C125.796 189.485 125.89 189.093 125.89 188.654C125.89 188.225 125.792 187.842 125.596 187.506C125.409 187.17 125.152 186.909 124.826 186.722C124.508 186.526 124.14 186.428 123.72 186.428C123.3 186.428 122.926 186.526 122.6 186.722C122.273 186.909 122.016 187.17 121.83 187.506C121.643 187.842 121.55 188.225 121.55 188.654C121.55 189.093 121.643 189.485 121.83 189.83C122.016 190.166 122.273 190.432 122.6 190.628C122.926 190.824 123.3 190.922 123.72 190.922ZM131.3 192.14C130.749 192.14 130.254 192.019 129.816 191.776C129.386 191.524 129.05 191.179 128.808 190.74C128.565 190.301 128.444 189.793 128.444 189.214V185.35H129.704V189.158C129.704 189.522 129.764 189.839 129.886 190.11C130.016 190.371 130.203 190.572 130.446 190.712C130.688 190.852 130.973 190.922 131.3 190.922C131.794 190.922 132.182 190.768 132.462 190.46C132.742 190.143 132.882 189.709 132.882 189.158V185.35H134.142V189.214C134.142 189.793 134.02 190.301 133.778 190.74C133.535 191.179 133.199 191.524 132.77 191.776C132.35 192.019 131.86 192.14 131.3 192.14ZM135.623 185.378L136.491 183.712L136.939 183.6C136.892 183.703 136.831 183.787 136.757 183.852C136.691 183.917 136.607 183.95 136.505 183.95C136.309 183.95 136.127 183.871 135.959 183.712C135.8 183.544 135.721 183.339 135.721 183.096C135.721 182.835 135.809 182.611 135.987 182.424C136.173 182.237 136.397 182.144 136.659 182.144C136.901 182.144 137.116 182.237 137.303 182.424C137.489 182.611 137.583 182.835 137.583 183.096C137.583 183.199 137.559 183.325 137.513 183.474C137.475 183.614 137.396 183.801 137.275 184.034L136.351 185.77L135.623 185.378ZM139.221 192V182.004H140.481V192H139.221ZM142.324 192V182.004H143.584V192H142.324ZM150.454 192.14C150.081 192.14 149.726 192.093 149.39 192C149.063 191.897 148.76 191.757 148.48 191.58C148.2 191.393 147.957 191.174 147.752 190.922L148.564 190.11C148.807 190.409 149.087 190.633 149.404 190.782C149.721 190.922 150.076 190.992 150.468 190.992C150.86 190.992 151.163 190.927 151.378 190.796C151.593 190.656 151.7 190.465 151.7 190.222C151.7 189.979 151.611 189.793 151.434 189.662C151.266 189.522 151.047 189.41 150.776 189.326C150.505 189.233 150.216 189.144 149.908 189.06C149.609 188.967 149.325 188.85 149.054 188.71C148.783 188.57 148.559 188.379 148.382 188.136C148.214 187.893 148.13 187.571 148.13 187.17C148.13 186.769 148.228 186.423 148.424 186.134C148.62 185.835 148.891 185.607 149.236 185.448C149.591 185.289 150.015 185.21 150.51 185.21C151.033 185.21 151.495 185.303 151.896 185.49C152.307 185.667 152.643 185.938 152.904 186.302L152.092 187.114C151.905 186.871 151.672 186.685 151.392 186.554C151.121 186.423 150.813 186.358 150.468 186.358C150.104 186.358 149.824 186.423 149.628 186.554C149.441 186.675 149.348 186.848 149.348 187.072C149.348 187.296 149.432 187.469 149.6 187.59C149.768 187.711 149.987 187.814 150.258 187.898C150.538 187.982 150.827 188.071 151.126 188.164C151.425 188.248 151.709 188.365 151.98 188.514C152.251 188.663 152.47 188.864 152.638 189.116C152.815 189.368 152.904 189.699 152.904 190.11C152.904 190.735 152.68 191.23 152.232 191.594C151.793 191.958 151.201 192.14 150.454 192.14ZM157.395 192.14C156.732 192.14 156.135 191.991 155.603 191.692C155.071 191.384 154.651 190.969 154.343 190.446C154.035 189.923 153.881 189.331 153.881 188.668C153.881 188.015 154.03 187.427 154.329 186.904C154.637 186.381 155.047 185.971 155.561 185.672C156.083 185.364 156.667 185.21 157.311 185.21C157.927 185.21 158.468 185.35 158.935 185.63C159.411 185.91 159.779 186.297 160.041 186.792C160.311 187.287 160.447 187.847 160.447 188.472C160.447 188.565 160.442 188.668 160.433 188.78C160.423 188.883 160.405 189.004 160.377 189.144H154.763V188.094H159.705L159.243 188.5C159.243 188.052 159.163 187.674 159.005 187.366C158.846 187.049 158.622 186.806 158.333 186.638C158.043 186.461 157.693 186.372 157.283 186.372C156.853 186.372 156.475 186.465 156.149 186.652C155.822 186.839 155.57 187.1 155.393 187.436C155.215 187.772 155.127 188.169 155.127 188.626C155.127 189.093 155.22 189.503 155.407 189.858C155.593 190.203 155.859 190.474 156.205 190.67C156.55 190.857 156.947 190.95 157.395 190.95C157.768 190.95 158.109 190.885 158.417 190.754C158.734 190.623 159.005 190.427 159.229 190.166L160.041 190.992C159.723 191.365 159.331 191.65 158.865 191.846C158.407 192.042 157.917 192.14 157.395 192.14ZM161.82 192V182.004H163.08V192H161.82ZM168.004 192.14C167.341 192.14 166.744 191.991 166.212 191.692C165.68 191.384 165.26 190.969 164.952 190.446C164.644 189.923 164.49 189.331 164.49 188.668C164.49 188.015 164.639 187.427 164.938 186.904C165.246 186.381 165.657 185.971 166.17 185.672C166.693 185.364 167.276 185.21 167.92 185.21C168.536 185.21 169.077 185.35 169.544 185.63C170.02 185.91 170.389 186.297 170.65 186.792C170.921 187.287 171.056 187.847 171.056 188.472C171.056 188.565 171.051 188.668 171.042 188.78C171.033 188.883 171.014 189.004 170.986 189.144H165.372V188.094H170.314L169.852 188.5C169.852 188.052 169.773 187.674 169.614 187.366C169.455 187.049 169.231 186.806 168.942 186.638C168.653 186.461 168.303 186.372 167.892 186.372C167.463 186.372 167.085 186.465 166.758 186.652C166.431 186.839 166.179 187.1 166.002 187.436C165.825 187.772 165.736 188.169 165.736 188.626C165.736 189.093 165.829 189.503 166.016 189.858C166.203 190.203 166.469 190.474 166.814 190.67C167.159 190.857 167.556 190.95 168.004 190.95C168.377 190.95 168.718 190.885 169.026 190.754C169.343 190.623 169.614 190.427 169.838 190.166L170.65 190.992C170.333 191.365 169.941 191.65 169.474 191.846C169.017 192.042 168.527 192.14 168.004 192.14ZM175.468 192.14C174.815 192.14 174.222 191.986 173.69 191.678C173.167 191.37 172.752 190.955 172.444 190.432C172.145 189.9 171.996 189.312 171.996 188.668C171.996 188.015 172.145 187.427 172.444 186.904C172.752 186.381 173.167 185.971 173.69 185.672C174.222 185.364 174.815 185.21 175.468 185.21C175.981 185.21 176.457 185.308 176.896 185.504C177.335 185.691 177.713 185.966 178.03 186.33L177.19 187.17C176.985 186.927 176.733 186.745 176.434 186.624C176.145 186.493 175.823 186.428 175.468 186.428C175.048 186.428 174.675 186.526 174.348 186.722C174.021 186.909 173.765 187.17 173.578 187.506C173.391 187.842 173.298 188.229 173.298 188.668C173.298 189.107 173.391 189.494 173.578 189.83C173.765 190.166 174.021 190.432 174.348 190.628C174.675 190.824 175.048 190.922 175.468 190.922C175.823 190.922 176.145 190.861 176.434 190.74C176.733 190.609 176.989 190.423 177.204 190.18L178.03 191.02C177.722 191.375 177.344 191.65 176.896 191.846C176.457 192.042 175.981 192.14 175.468 192.14ZM180.219 192V182.564H181.479V192H180.219ZM178.581 186.498V185.35H183.117V186.498H178.581ZM189.168 192L186.536 185.35H187.852L189.756 190.53H189.336L191.226 185.35H191.954L193.844 190.53H193.424L195.328 185.35H196.644L194.026 192H193.284L191.366 186.974H191.828L189.896 192H189.168ZM197.668 192V185.35H198.928V192H197.668ZM198.298 184.02C198.065 184.02 197.874 183.945 197.724 183.796C197.575 183.637 197.5 183.441 197.5 183.208C197.5 182.984 197.575 182.797 197.724 182.648C197.874 182.489 198.065 182.41 198.298 182.41C198.532 182.41 198.723 182.489 198.872 182.648C199.022 182.797 199.096 182.984 199.096 183.208C199.096 183.441 199.022 183.637 198.872 183.796C198.723 183.945 198.532 184.02 198.298 184.02ZM200.785 192V182.004H202.045V192H200.785ZM203.889 192V182.004H205.149V192H203.889ZM213.404 192.14C212.9 192.14 212.443 192.037 212.032 191.832C211.631 191.617 211.309 191.323 211.066 190.95C210.824 190.577 210.688 190.152 210.66 189.676V187.674C210.688 187.189 210.824 186.764 211.066 186.4C211.318 186.027 211.645 185.737 212.046 185.532C212.457 185.317 212.91 185.21 213.404 185.21C214.011 185.21 214.557 185.364 215.042 185.672C215.537 185.98 215.924 186.395 216.204 186.918C216.484 187.441 216.624 188.029 216.624 188.682C216.624 189.335 216.484 189.923 216.204 190.446C215.924 190.969 215.537 191.384 215.042 191.692C214.557 191.991 214.011 192.14 213.404 192.14ZM209.904 192V182.004H211.164V186.974L210.926 188.584L211.164 190.208V192H209.904ZM213.194 190.95C213.614 190.95 213.983 190.852 214.3 190.656C214.618 190.46 214.87 190.194 215.056 189.858C215.243 189.513 215.336 189.116 215.336 188.668C215.336 188.229 215.243 187.837 215.056 187.492C214.87 187.147 214.618 186.881 214.3 186.694C213.983 186.498 213.619 186.4 213.208 186.4C212.788 186.4 212.42 186.498 212.102 186.694C211.785 186.881 211.538 187.147 211.36 187.492C211.183 187.837 211.094 188.234 211.094 188.682C211.094 189.121 211.178 189.513 211.346 189.858C211.524 190.194 211.771 190.46 212.088 190.656C212.415 190.852 212.784 190.95 213.194 190.95ZM221.133 192.14C220.47 192.14 219.873 191.991 219.341 191.692C218.809 191.384 218.389 190.969 218.081 190.446C217.773 189.923 217.619 189.331 217.619 188.668C217.619 188.015 217.768 187.427 218.067 186.904C218.375 186.381 218.786 185.971 219.299 185.672C219.822 185.364 220.405 185.21 221.049 185.21C221.665 185.21 222.206 185.35 222.673 185.63C223.149 185.91 223.518 186.297 223.779 186.792C224.05 187.287 224.185 187.847 224.185 188.472C224.185 188.565 224.18 188.668 224.171 188.78C224.162 188.883 224.143 189.004 224.115 189.144H218.501V188.094H223.443L222.981 188.5C222.981 188.052 222.902 187.674 222.743 187.366C222.584 187.049 222.36 186.806 222.071 186.638C221.782 186.461 221.432 186.372 221.021 186.372C220.592 186.372 220.214 186.465 219.887 186.652C219.56 186.839 219.308 187.1 219.131 187.436C218.954 187.772 218.865 188.169 218.865 188.626C218.865 189.093 218.958 189.503 219.145 189.858C219.332 190.203 219.598 190.474 219.943 190.67C220.288 190.857 220.685 190.95 221.133 190.95C221.506 190.95 221.847 190.885 222.155 190.754C222.472 190.623 222.743 190.427 222.967 190.166L223.779 190.992C223.462 191.365 223.07 191.65 222.603 191.846C222.146 192.042 221.656 192.14 221.133 192.14ZM231.285 192.14C230.669 192.14 230.118 191.991 229.633 191.692C229.148 191.384 228.76 190.969 228.471 190.446C228.191 189.923 228.051 189.335 228.051 188.682C228.051 188.029 228.191 187.441 228.471 186.918C228.76 186.395 229.148 185.98 229.633 185.672C230.118 185.364 230.669 185.21 231.285 185.21C231.78 185.21 232.228 185.317 232.629 185.532C233.03 185.737 233.352 186.027 233.595 186.4C233.847 186.764 233.987 187.189 234.015 187.674V189.676C233.987 190.152 233.852 190.577 233.609 190.95C233.366 191.323 233.044 191.617 232.643 191.832C232.242 192.037 231.789 192.14 231.285 192.14ZM231.495 190.95C231.915 190.95 232.279 190.852 232.587 190.656C232.904 190.46 233.152 190.194 233.329 189.858C233.506 189.513 233.595 189.121 233.595 188.682C233.595 188.225 233.502 187.828 233.315 187.492C233.138 187.156 232.89 186.89 232.573 186.694C232.265 186.498 231.901 186.4 231.481 186.4C231.061 186.4 230.692 186.498 230.375 186.694C230.058 186.89 229.806 187.161 229.619 187.506C229.442 187.842 229.353 188.229 229.353 188.668C229.353 189.116 229.442 189.513 229.619 189.858C229.806 190.194 230.058 190.46 230.375 190.656C230.702 190.852 231.075 190.95 231.495 190.95ZM234.785 192H233.511V190.208L233.749 188.584L233.511 186.974V182.004H234.785V192ZM236.633 192V185.35H237.893V192H236.633ZM237.263 184.02C237.03 184.02 236.839 183.945 236.689 183.796C236.54 183.637 236.465 183.441 236.465 183.208C236.465 182.984 236.54 182.797 236.689 182.648C236.839 182.489 237.03 182.41 237.263 182.41C237.497 182.41 237.688 182.489 237.837 182.648C237.987 182.797 238.061 182.984 238.061 183.208C238.061 183.441 237.987 183.637 237.837 183.796C237.688 183.945 237.497 184.02 237.263 184.02ZM241.864 192.14C241.491 192.14 241.136 192.093 240.8 192C240.474 191.897 240.17 191.757 239.89 191.58C239.61 191.393 239.368 191.174 239.162 190.922L239.974 190.11C240.217 190.409 240.497 190.633 240.814 190.782C241.132 190.922 241.486 190.992 241.878 190.992C242.27 190.992 242.574 190.927 242.788 190.796C243.003 190.656 243.11 190.465 243.11 190.222C243.11 189.979 243.022 189.793 242.844 189.662C242.676 189.522 242.457 189.41 242.186 189.326C241.916 189.233 241.626 189.144 241.318 189.06C241.02 188.967 240.735 188.85 240.464 188.71C240.194 188.57 239.97 188.379 239.792 188.136C239.624 187.893 239.54 187.571 239.54 187.17C239.54 186.769 239.638 186.423 239.834 186.134C240.03 185.835 240.301 185.607 240.646 185.448C241.001 185.289 241.426 185.21 241.92 185.21C242.443 185.21 242.905 185.303 243.306 185.49C243.717 185.667 244.053 185.938 244.314 186.302L243.502 187.114C243.316 186.871 243.082 186.685 242.802 186.554C242.532 186.423 242.224 186.358 241.878 186.358C241.514 186.358 241.234 186.423 241.038 186.554C240.852 186.675 240.758 186.848 240.758 187.072C240.758 187.296 240.842 187.469 241.01 187.59C241.178 187.711 241.398 187.814 241.668 187.898C241.948 187.982 242.238 188.071 242.536 188.164C242.835 188.248 243.12 188.365 243.39 188.514C243.661 188.663 243.88 188.864 244.048 189.116C244.226 189.368 244.314 189.699 244.314 190.11C244.314 190.735 244.09 191.23 243.642 191.594C243.204 191.958 242.611 192.14 241.864 192.14ZM249.225 192.14C248.721 192.14 248.263 192.037 247.853 191.832C247.451 191.617 247.129 191.323 246.887 190.95C246.644 190.577 246.509 190.152 246.481 189.676V187.674C246.509 187.189 246.644 186.764 246.887 186.4C247.139 186.027 247.465 185.737 247.867 185.532C248.277 185.317 248.73 185.21 249.225 185.21C249.831 185.21 250.377 185.364 250.863 185.672C251.357 185.98 251.745 186.395 252.025 186.918C252.305 187.441 252.445 188.029 252.445 188.682C252.445 189.335 252.305 189.923 252.025 190.446C251.745 190.969 251.357 191.384 250.863 191.692C250.377 191.991 249.831 192.14 249.225 192.14ZM245.725 194.786V185.35H246.985V187.1L246.747 188.71L246.985 190.334V194.786H245.725ZM249.015 190.95C249.435 190.95 249.803 190.852 250.121 190.656C250.438 190.46 250.69 190.194 250.877 189.858C251.063 189.513 251.157 189.116 251.157 188.668C251.157 188.229 251.063 187.837 250.877 187.492C250.69 187.147 250.438 186.881 250.121 186.694C249.803 186.498 249.439 186.4 249.029 186.4C248.609 186.4 248.24 186.498 247.923 186.694C247.605 186.881 247.358 187.147 247.181 187.492C247.003 187.837 246.915 188.234 246.915 188.682C246.915 189.121 246.999 189.513 247.167 189.858C247.344 190.194 247.591 190.46 247.909 190.656C248.235 190.852 248.604 190.95 249.015 190.95ZM253.873 192V182.004H255.133V192H253.873ZM259.805 192.14C259.198 192.14 258.647 191.991 258.153 191.692C257.658 191.384 257.266 190.969 256.977 190.446C256.697 189.923 256.557 189.335 256.557 188.682C256.557 188.029 256.697 187.441 256.977 186.918C257.266 186.395 257.653 185.98 258.139 185.672C258.633 185.364 259.189 185.21 259.805 185.21C260.309 185.21 260.757 185.317 261.149 185.532C261.55 185.737 261.872 186.027 262.115 186.4C262.357 186.764 262.493 187.189 262.521 187.674V189.676C262.493 190.152 262.357 190.577 262.115 190.95C261.881 191.323 261.564 191.617 261.163 191.832C260.771 192.037 260.318 192.14 259.805 192.14ZM260.015 190.95C260.64 190.95 261.144 190.74 261.527 190.32C261.909 189.891 262.101 189.345 262.101 188.682C262.101 188.225 262.012 187.828 261.835 187.492C261.667 187.147 261.424 186.881 261.107 186.694C260.789 186.498 260.421 186.4 260.001 186.4C259.581 186.4 259.207 186.498 258.881 186.694C258.563 186.89 258.311 187.161 258.125 187.506C257.947 187.842 257.859 188.229 257.859 188.668C257.859 189.116 257.947 189.513 258.125 189.858C258.311 190.194 258.568 190.46 258.895 190.656C259.221 190.852 259.595 190.95 260.015 190.95ZM262.017 192V190.208L262.255 188.584L262.017 186.974V185.35H263.291V192H262.017ZM267.309 192.056L264.425 185.35H265.825L267.967 190.6H267.519L269.773 185.35H271.173L268.065 192.056H267.309ZM265.405 194.786L267.365 190.768L268.065 192.056L266.805 194.786H265.405ZM275.027 192.14C274.365 192.14 273.767 191.991 273.235 191.692C272.703 191.384 272.283 190.969 271.975 190.446C271.667 189.923 271.513 189.331 271.513 188.668C271.513 188.015 271.663 187.427 271.961 186.904C272.269 186.381 272.68 185.971 273.193 185.672C273.716 185.364 274.299 185.21 274.943 185.21C275.559 185.21 276.101 185.35 276.567 185.63C277.043 185.91 277.412 186.297 277.673 186.792C277.944 187.287 278.079 187.847 278.079 188.472C278.079 188.565 278.075 188.668 278.065 188.78C278.056 188.883 278.037 189.004 278.009 189.144H272.395V188.094H277.337L276.875 188.5C276.875 188.052 276.796 187.674 276.637 187.366C276.479 187.049 276.255 186.806 275.965 186.638C275.676 186.461 275.326 186.372 274.915 186.372C274.486 186.372 274.108 186.465 273.781 186.652C273.455 186.839 273.203 187.1 273.025 187.436C272.848 187.772 272.759 188.169 272.759 188.626C272.759 189.093 272.853 189.503 273.039 189.858C273.226 190.203 273.492 190.474 273.837 190.67C274.183 190.857 274.579 190.95 275.027 190.95C275.401 190.95 275.741 190.885 276.049 190.754C276.367 190.623 276.637 190.427 276.861 190.166L277.673 190.992C277.356 191.365 276.964 191.65 276.497 191.846C276.04 192.042 275.55 192.14 275.027 192.14ZM282.267 192.14C281.651 192.14 281.101 191.991 280.615 191.692C280.13 191.384 279.743 190.969 279.453 190.446C279.173 189.923 279.033 189.335 279.033 188.682C279.033 188.029 279.173 187.441 279.453 186.918C279.743 186.395 280.13 185.98 280.615 185.672C281.101 185.364 281.651 185.21 282.267 185.21C282.762 185.21 283.21 185.317 283.611 185.532C284.013 185.737 284.335 186.027 284.577 186.4C284.829 186.764 284.969 187.189 284.997 187.674V189.676C284.969 190.152 284.834 190.577 284.591 190.95C284.349 191.323 284.027 191.617 283.625 191.832C283.224 192.037 282.771 192.14 282.267 192.14ZM282.477 190.95C282.897 190.95 283.261 190.852 283.569 190.656C283.887 190.46 284.134 190.194 284.311 189.858C284.489 189.513 284.577 189.121 284.577 188.682C284.577 188.225 284.484 187.828 284.297 187.492C284.12 187.156 283.873 186.89 283.555 186.694C283.247 186.498 282.883 186.4 282.463 186.4C282.043 186.4 281.675 186.498 281.357 186.694C281.04 186.89 280.788 187.161 280.601 187.506C280.424 187.842 280.335 188.229 280.335 188.668C280.335 189.116 280.424 189.513 280.601 189.858C280.788 190.194 281.04 190.46 281.357 190.656C281.684 190.852 282.057 190.95 282.477 190.95ZM285.767 192H284.493V190.208L284.731 188.584L284.493 186.974V182.004H285.767V192ZM295.218 192V188.122C295.218 187.618 295.059 187.203 294.742 186.876C294.425 186.549 294.014 186.386 293.51 186.386C293.174 186.386 292.875 186.461 292.614 186.61C292.353 186.759 292.147 186.965 291.998 187.226C291.849 187.487 291.774 187.786 291.774 188.122L291.256 187.828C291.256 187.324 291.368 186.876 291.592 186.484C291.816 186.092 292.129 185.784 292.53 185.56C292.931 185.327 293.384 185.21 293.888 185.21C294.392 185.21 294.835 185.322 295.218 185.546C295.61 185.77 295.918 186.083 296.142 186.484C296.366 186.885 296.478 187.347 296.478 187.87V192H295.218ZM290.514 192V182.004H291.774V192H290.514ZM301.264 192.14C300.601 192.14 300.004 191.991 299.472 191.692C298.94 191.384 298.52 190.969 298.212 190.446C297.904 189.923 297.75 189.331 297.75 188.668C297.75 188.015 297.899 187.427 298.198 186.904C298.506 186.381 298.916 185.971 299.43 185.672C299.952 185.364 300.536 185.21 301.18 185.21C301.796 185.21 302.337 185.35 302.804 185.63C303.28 185.91 303.648 186.297 303.91 186.792C304.18 187.287 304.316 187.847 304.316 188.472C304.316 188.565 304.311 188.668 304.302 188.78C304.292 188.883 304.274 189.004 304.246 189.144H298.632V188.094H303.574L303.112 188.5C303.112 188.052 303.032 187.674 302.874 187.366C302.715 187.049 302.491 186.806 302.202 186.638C301.912 186.461 301.562 186.372 301.152 186.372C300.722 186.372 300.344 186.465 300.018 186.652C299.691 186.839 299.439 187.1 299.262 187.436C299.084 187.772 298.996 188.169 298.996 188.626C298.996 189.093 299.089 189.503 299.276 189.858C299.462 190.203 299.728 190.474 300.074 190.67C300.419 190.857 300.816 190.95 301.264 190.95C301.637 190.95 301.978 190.885 302.286 190.754C302.603 190.623 302.874 190.427 303.098 190.166L303.91 190.992C303.592 191.365 303.2 191.65 302.734 191.846C302.276 192.042 301.786 192.14 301.264 192.14ZM305.69 192V185.35H306.95V192H305.69ZM306.95 188.206L306.474 187.996C306.474 187.147 306.67 186.47 307.062 185.966C307.454 185.462 308.018 185.21 308.756 185.21C309.092 185.21 309.395 185.271 309.666 185.392C309.936 185.504 310.188 185.695 310.422 185.966L309.596 186.82C309.456 186.671 309.302 186.563 309.134 186.498C308.966 186.433 308.77 186.4 308.546 186.4C308.079 186.4 307.696 186.549 307.398 186.848C307.099 187.147 306.95 187.599 306.95 188.206ZM314.17 192.14C313.507 192.14 312.91 191.991 312.378 191.692C311.846 191.384 311.426 190.969 311.118 190.446C310.81 189.923 310.656 189.331 310.656 188.668C310.656 188.015 310.805 187.427 311.104 186.904C311.412 186.381 311.823 185.971 312.336 185.672C312.859 185.364 313.442 185.21 314.086 185.21C314.702 185.21 315.243 185.35 315.71 185.63C316.186 185.91 316.555 186.297 316.816 186.792C317.087 187.287 317.222 187.847 317.222 188.472C317.222 188.565 317.217 188.668 317.208 188.78C317.199 188.883 317.18 189.004 317.152 189.144H311.538V188.094H316.48L316.018 188.5C316.018 188.052 315.939 187.674 315.78 187.366C315.621 187.049 315.397 186.806 315.108 186.638C314.819 186.461 314.469 186.372 314.058 186.372C313.629 186.372 313.251 186.465 312.924 186.652C312.597 186.839 312.345 187.1 312.168 187.436C311.991 187.772 311.902 188.169 311.902 188.626C311.902 189.093 311.995 189.503 312.182 189.858C312.369 190.203 312.635 190.474 312.98 190.67C313.325 190.857 313.722 190.95 314.17 190.95C314.543 190.95 314.884 190.885 315.192 190.754C315.509 190.623 315.78 190.427 316.004 190.166L316.816 190.992C316.499 191.365 316.107 191.65 315.64 191.846C315.183 192.042 314.693 192.14 314.17 192.14Z" fill="#BCD9E1"/>
</svg>
