<svg width="30" height="30" viewBox="0 0 30 30" fill="none" xmlns="http://www.w3.org/2000/svg">
<g id="-">
<g id="Vector">
<path d="M0 15.3798C0 6.88559 6.71687 0 15.0001 0C23.2841 0 30 6.88559 30 15.3798C30 22.1726 25.7075 27.9356 19.7507 29.9715C18.9904 30.1226 18.7203 29.643 18.7203 29.2337C18.7203 29.0659 18.7223 28.7718 18.7248 28.3786C18.73 27.5854 18.7377 26.3885 18.7377 25.0131C18.7377 23.5782 18.2583 22.6423 17.7203 22.165C21.0605 21.7843 24.5696 20.4836 24.5696 14.5765C24.5696 12.8974 23.9876 11.5254 23.0258 10.4483C23.1815 10.061 23.6952 8.49671 22.8787 6.37826C22.8787 6.37826 21.6209 5.96492 18.7579 7.95475C17.5591 7.61398 16.2749 7.44309 15.0001 7.43723C13.7254 7.44309 12.4421 7.61398 11.2456 7.95475C8.37913 5.96492 7.11952 6.37826 7.11952 6.37826C6.30503 8.49671 6.81846 10.061 6.97421 10.4483C6.01466 11.5254 5.42869 12.8974 5.42869 14.5765C5.42869 20.4696 8.93107 21.7883 12.2628 22.1772C11.8338 22.5613 11.4451 23.2398 11.3105 24.2338C10.4545 24.6268 8.28325 25.3065 6.94539 22.9553C6.94539 22.9553 6.15227 21.4789 4.64599 21.3704C4.64599 21.3704 3.18245 21.3508 4.54341 22.3053C4.54341 22.3053 5.52656 22.778 6.2089 24.5557C6.2089 24.5557 7.08946 27.3007 11.2625 26.3703C11.266 27.0688 11.2717 27.7455 11.2762 28.2767C11.28 28.7225 11.2829 29.0664 11.2829 29.2337C11.2829 29.6399 11.0077 30.1159 10.258 29.9736C4.29799 27.9399 0 22.1749 0 15.3798Z" fill="#BCD9E1"/>
<path d="M5.46907 22.0228C5.57568 22.0747 5.69271 22.052 5.72568 21.9764C5.76337 21.9005 5.70139 21.7963 5.59254 21.7466C5.4842 21.6944 5.36692 21.7161 5.33469 21.794C5.29948 21.8699 5.36048 21.9731 5.46907 22.0228Z" fill="#BCD9E1"/>
<path d="M6.33114 22.6644C6.25974 22.7317 6.12015 22.7004 6.02544 22.594C5.92751 22.4879 5.90916 22.3459 5.98155 22.2775C6.05519 22.2102 6.19056 22.2417 6.28874 22.3479C6.38668 22.4553 6.40577 22.5963 6.33114 22.6644Z" fill="#BCD9E1"/>
<path d="M6.58711 23.4101C6.67984 23.5456 6.82984 23.6063 6.92157 23.5415C7.01529 23.4752 7.01529 23.3128 6.9238 23.1751C6.82984 23.0407 6.68207 22.9822 6.58909 23.0473C6.49538 23.1123 6.49538 23.2747 6.58711 23.4101Z" fill="#BCD9E1"/>
<path d="M7.73049 24.3887C7.64842 24.4808 7.47363 24.456 7.3457 24.3305C7.21479 24.2076 7.17834 24.0334 7.26066 23.9414C7.34371 23.8491 7.5195 23.875 7.64842 23.9996C7.77834 24.1222 7.81801 24.2977 7.73049 24.3887Z" fill="#BCD9E1"/>
<path d="M8.47237 25.0034C8.64196 25.0541 8.8103 24.9999 8.8465 24.8806C8.88171 24.7593 8.77063 24.6206 8.60154 24.5687C8.43072 24.5145 8.26163 24.571 8.22642 24.691C8.1922 24.8115 8.30303 24.9512 8.47237 25.0034Z" fill="#BCD9E1"/>
<path d="M10.0721 24.972C10.0763 25.0976 9.93251 25.2017 9.7545 25.204C9.57549 25.208 9.43069 25.1064 9.42871 24.9829C9.42871 24.856 9.56929 24.7529 9.7483 24.7498C9.92631 24.7463 10.0721 24.8472 10.0721 24.972Z" fill="#BCD9E1"/>
<path d="M10.9329 25.0564C11.1097 25.0229 11.2334 24.897 11.2121 24.7745C11.1895 24.6499 11.0311 24.5763 10.8541 24.6076C10.6805 24.6401 10.5546 24.7659 10.5761 24.8915C10.5982 25.013 10.7591 25.0887 10.9329 25.0564Z" fill="#BCD9E1"/>
</g>
</g>
</svg>
