<svg width="804" height="698" viewBox="0 0 804 698" fill="none" xmlns="http://www.w3.org/2000/svg">
<g clip-path="url(#clip0_9600_25535)">
<g opacity="0.4">
<path d="M215.417 464.621L211.266 464.373C206.262 464.075 201.344 465.781 197.594 469.115C193.844 472.45 191.569 477.14 191.271 482.155L191.169 483.856C190.968 487.171 189.901 490.375 188.074 493.147C186.247 495.919 183.725 498.16 180.76 499.647L176.563 501.769C173.595 503.257 170.289 503.937 166.977 503.739C163.665 503.542 160.463 502.475 157.694 500.644L156.324 499.804C152.143 497.043 147.04 496.058 142.134 497.064C137.228 498.07 132.92 500.985 130.156 505.17L127.867 508.638C125.111 512.827 124.126 517.941 125.129 522.856C126.132 527.771 129.04 532.087 133.216 534.855L134.575 535.884C137.329 537.704 139.559 540.214 141.044 543.165C142.529 546.116 143.217 549.405 143.041 552.705L142.753 557.526C142.568 560.859 141.507 564.083 139.678 566.872C137.849 569.662 135.317 571.918 132.339 573.412L130.873 574.179C126.398 576.431 122.997 580.37 121.418 585.132C119.838 589.893 120.209 595.087 122.448 599.574L124.309 603.29C126.557 607.773 130.487 611.179 135.239 612.761C139.991 614.343 145.175 613.97 149.654 611.726L151.115 611.054C154.082 609.565 157.388 608.886 160.7 609.083C164.012 609.28 167.214 610.348 169.983 612.178L173.899 614.783C176.666 616.612 178.904 619.137 180.389 622.106C181.874 625.075 182.553 628.383 182.359 631.699L182.258 633.4C181.959 638.414 183.661 643.342 186.988 647.098C190.315 650.854 194.996 653.132 200 653.43L204.151 653.678C209.156 653.976 214.074 652.27 217.824 648.935C221.573 645.601 223.848 640.91 224.147 635.896L224.248 634.195C224.449 630.88 225.517 627.676 227.344 624.904C229.171 622.132 231.693 619.891 234.657 618.404L238.855 616.282C241.822 614.794 245.128 614.114 248.44 614.311C251.752 614.509 254.954 615.576 257.724 617.407L259.094 618.247C263.274 621.008 268.378 621.993 273.284 620.987C278.19 619.981 282.497 617.066 285.261 612.881L287.556 609.318C290.312 605.129 291.297 600.015 290.294 595.1C289.291 590.185 286.383 585.87 282.207 583.102L280.837 582.261C278.056 580.424 275.81 577.883 274.326 574.896C272.841 571.909 272.171 568.582 272.382 565.251L272.664 560.525C272.849 557.192 273.91 553.968 275.739 551.179C277.568 548.389 280.1 546.133 283.079 544.639L284.544 543.872C289.019 541.62 292.42 537.681 293.999 532.919C295.579 528.158 295.208 522.963 292.969 518.476L291.108 514.761C288.861 510.278 284.93 506.871 280.178 505.29C275.426 503.708 270.242 504.081 265.763 506.325L264.303 506.997C261.335 508.486 258.03 509.165 254.717 508.968C251.405 508.77 248.203 507.703 245.434 505.873L241.518 503.268C238.751 501.439 236.513 498.914 235.028 495.945C233.543 492.976 232.864 489.668 233.058 486.352L233.159 484.651C233.458 479.637 231.757 474.709 228.429 470.953C225.102 467.197 220.421 464.919 215.417 464.621Z" stroke="#2CCBAB" stroke-linecap="round" stroke-linejoin="round"/>
<path d="M206.019 587.384C221.65 588.316 235.079 576.374 236.012 560.712C236.945 545.05 225.03 531.599 209.398 530.667C193.767 529.736 180.339 541.677 179.405 557.339C178.472 573.001 190.387 586.453 206.019 587.384Z" stroke="#2CCBAB" stroke-linecap="round" stroke-linejoin="round"/>
</g>
<g opacity="0.4">
<path d="M108.068 424.38L105.464 423.076C102.324 421.503 98.6879 421.245 95.3541 422.358C92.0203 423.47 89.2625 425.862 87.6872 429.008L87.1527 430.075C86.109 432.154 84.5381 433.922 82.5975 435.203C80.6569 436.483 78.4149 437.231 76.0965 437.371L72.8091 437.579C70.4883 437.718 68.1726 437.244 66.0948 436.204C64.0169 435.163 62.2501 433.593 60.972 431.651L60.3217 430.732C58.3917 427.801 55.378 425.76 51.9423 425.054C48.5065 424.349 44.9294 425.037 41.9962 426.969L39.5656 428.57C36.6358 430.507 34.5916 433.528 33.8816 436.969C33.1716 440.409 33.8539 443.99 35.7787 446.923L36.3695 447.961C37.6403 449.892 38.3838 452.123 38.526 454.432C38.6682 456.741 38.2042 459.049 37.1801 461.125L35.6656 464.149C34.6273 466.243 33.0551 468.026 31.1084 469.318C29.1616 470.609 26.9093 471.363 24.5797 471.503L23.4246 471.593C19.9225 471.808 16.647 473.407 14.3169 476.036C11.9868 478.666 10.7927 482.112 10.9967 485.618L11.1702 488.524C11.3804 492.029 12.9715 495.306 15.5944 497.635C18.2173 499.964 21.6575 501.154 25.16 500.944L26.2853 500.914C28.6061 500.775 30.9218 501.249 32.9996 502.289C35.0775 503.33 36.8443 504.9 38.1224 506.842L39.925 509.599C41.2019 511.539 41.9462 513.783 42.0833 516.103C42.2203 518.424 41.7453 520.741 40.7059 522.822L40.1713 523.89C38.5961 527.035 38.3324 530.677 39.4385 534.012C40.5445 537.348 42.9295 540.106 46.0689 541.678L48.6731 542.982C51.8125 544.554 55.4491 544.812 58.7828 543.7C62.1166 542.587 64.8744 540.195 66.4497 537.05L66.9842 535.982C68.0279 533.904 69.5989 532.135 71.5394 530.855C73.48 529.574 75.722 528.827 78.0404 528.687L81.3279 528.479C83.6486 528.339 85.9643 528.814 88.0422 529.854C90.12 530.895 91.8868 532.465 93.165 534.407L93.8152 535.326C95.7452 538.256 98.7589 540.298 102.195 541.004C105.63 541.709 109.208 541.02 112.141 539.089L114.601 537.428C117.531 535.491 119.575 532.471 120.285 529.03C120.995 525.589 120.313 522.009 118.388 519.075L117.738 518.156C116.455 516.207 115.709 513.951 115.577 511.619C115.446 509.286 115.932 506.959 116.986 504.874L118.471 501.909C119.51 499.815 121.082 498.032 123.029 496.74C124.975 495.449 127.228 494.695 129.557 494.554L130.712 494.465C134.214 494.249 137.49 492.651 139.82 490.022C142.15 487.392 143.344 483.946 143.14 480.44L142.967 477.534C142.757 474.028 141.165 470.751 138.543 468.423C135.92 466.094 132.479 464.904 128.977 465.114L127.852 465.143C125.531 465.283 123.215 464.809 121.137 463.768C119.059 462.728 117.293 461.158 116.014 459.215L114.212 456.458C112.935 454.518 112.191 452.275 112.054 449.954C111.917 447.633 112.392 445.316 113.431 443.235L113.966 442.168C115.541 439.022 115.804 435.381 114.698 432.045C113.592 428.709 111.207 425.952 108.068 424.38Z" stroke="#2CCBAB" stroke-linecap="round" stroke-linejoin="round"/>
<path d="M68.1592 500.819C77.9654 505.73 89.9037 501.746 94.8241 491.921C99.7446 482.095 95.7839 470.149 85.9777 465.239C76.1715 460.328 64.2332 464.312 59.3128 474.137C54.3924 483.962 58.353 495.908 68.1592 500.819Z" stroke="#2CCBAB" stroke-linecap="round" stroke-linejoin="round"/>
</g>
<g opacity="0.4">
<path d="M592.679 407.11L588.663 406.034C583.82 404.736 578.66 405.419 574.316 407.933C569.973 410.446 566.803 414.584 565.502 419.435L565.061 421.082C564.198 424.289 562.509 427.213 560.162 429.561C557.816 431.91 554.895 433.599 551.692 434.46L547.154 435.695C543.948 436.557 540.573 436.558 537.368 435.7C534.163 434.841 531.241 433.152 528.896 430.803L527.722 429.704C524.181 426.16 519.38 424.169 514.372 424.169C509.364 424.169 504.559 426.159 501.011 429.703L498.071 432.641C494.529 436.191 492.537 441.003 492.532 446.019C492.527 451.036 494.51 455.847 498.044 459.398L499.168 460.679C501.5 463.015 503.181 465.922 504.043 469.111C504.905 472.3 504.918 475.661 504.082 478.858L502.832 483.523C501.981 486.75 500.294 489.696 497.942 492.061C495.59 494.426 492.656 496.128 489.438 496.993L487.848 497.449C483.012 498.757 478.89 501.932 476.386 506.279C473.882 510.626 473.201 515.789 474.493 520.635L475.57 524.649C476.871 529.492 480.037 533.618 484.374 536.122C488.711 538.626 493.865 539.303 498.703 538.004L500.269 537.639C503.475 536.777 506.85 536.775 510.055 537.634C513.26 538.493 516.182 540.182 518.527 542.531L521.84 545.87C524.183 548.217 525.868 551.14 526.726 554.347C527.584 557.554 527.585 560.931 526.729 564.14L526.288 565.787C524.988 570.639 525.665 575.807 528.169 580.155C530.674 584.504 534.802 587.675 539.644 588.973L543.661 590.049C548.503 591.347 553.664 590.664 558.007 588.15C562.351 585.637 565.521 581.499 566.821 576.648L567.262 575.001C568.125 571.794 569.815 568.87 572.161 566.521C574.508 564.173 577.429 562.484 580.631 561.623L585.17 560.388C588.376 559.526 591.751 559.525 594.956 560.383C598.161 561.242 601.083 562.931 603.428 565.28L604.601 566.379C608.142 569.923 612.944 571.914 617.952 571.914C622.96 571.914 627.765 569.924 631.313 566.38L634.277 563.351C637.819 559.8 639.811 554.989 639.816 549.972C639.821 544.956 637.838 540.144 634.304 536.594L633.131 535.495C630.776 533.137 629.086 530.196 628.232 526.972C627.378 523.748 627.39 520.353 628.266 517.133L629.492 512.56C630.343 509.333 632.029 506.387 634.381 504.022C636.734 501.657 639.667 499.955 642.885 499.09L644.475 498.634C649.311 497.326 653.434 494.151 655.938 489.804C658.442 485.457 659.123 480.294 657.831 475.448L656.753 471.434C655.453 466.591 652.286 462.465 647.949 459.961C643.612 457.457 638.459 456.78 633.62 458.079L632.055 458.444C628.849 459.306 625.474 459.308 622.269 458.449C619.064 457.59 616.142 455.901 613.796 453.552L610.484 450.213C608.141 447.866 606.455 444.943 605.597 441.736C604.739 438.529 604.738 435.152 605.595 431.943L606.036 430.296C607.336 425.444 606.659 420.276 604.154 415.928C601.649 411.579 597.522 408.408 592.679 407.11Z" stroke="#2CCBAB" stroke-linecap="round" stroke-linejoin="round"/>
<path d="M558.809 525.482C573.935 529.535 589.488 520.535 593.549 505.38C597.61 490.225 588.64 474.654 573.515 470.601C558.389 466.548 542.835 475.548 538.774 490.703C534.714 505.858 543.683 521.429 558.809 525.482Z" stroke="#2CCBAB" stroke-linecap="round" stroke-linejoin="round"/>
</g>
<g opacity="0.4">
<path d="M256.867 131.415L252.85 132.491C248.008 133.789 243.88 136.96 241.375 141.309C238.87 145.657 238.194 150.825 239.494 155.677L239.935 157.324C240.791 160.533 240.79 163.91 239.932 167.117C239.074 170.324 237.389 173.247 235.046 175.594L231.733 178.933C229.388 181.282 226.466 182.971 223.261 183.83C220.056 184.689 216.681 184.687 213.475 183.825L211.909 183.46C207.071 182.161 201.917 182.838 197.58 185.342C193.243 187.846 190.077 191.972 188.776 196.815L187.699 200.829C186.407 205.675 187.088 210.838 189.592 215.185C192.095 219.532 196.218 222.707 201.054 224.015L202.669 224.563C205.856 225.42 208.765 227.097 211.106 229.428C213.447 231.758 215.139 234.662 216.013 237.849L217.263 242.514C218.14 245.734 218.152 249.129 217.297 252.353C216.443 255.577 214.753 258.518 212.399 260.876L211.25 262.066C207.715 265.617 205.733 270.428 205.738 275.445C205.743 280.461 207.735 285.273 211.277 288.823L214.217 291.761C217.764 295.305 222.57 297.295 227.578 297.295C232.586 297.295 237.387 295.304 240.928 291.76L242.101 290.661C244.447 288.312 247.369 286.623 250.574 285.764C253.779 284.906 257.154 284.907 260.36 285.769L264.898 287.004C268.101 287.865 271.022 289.554 273.368 291.903C275.715 294.251 277.404 297.175 278.267 300.382L278.708 302.029C280.008 306.88 283.179 311.018 287.522 313.531C291.866 316.045 297.026 316.728 301.868 315.43L305.885 314.354C310.728 313.056 314.855 309.885 317.36 305.536C319.865 301.188 320.542 296.02 319.242 291.168L318.801 289.521C317.944 286.312 317.945 282.935 318.803 279.728C319.661 276.521 321.346 273.598 323.69 271.251L327.002 267.912C329.348 265.563 332.27 263.874 335.475 263.015C338.68 262.156 342.055 262.158 345.261 263.02L346.826 263.385C351.665 264.684 356.818 264.007 361.155 261.503C365.492 258.999 368.659 254.873 369.959 250.03L371.012 245.924C372.304 241.079 371.623 235.916 369.119 231.569C366.615 227.222 362.493 224.046 357.657 222.739L356.091 222.374C352.873 221.509 349.939 219.807 347.587 217.442C345.235 215.077 343.548 212.131 342.697 208.904L341.472 204.331C340.595 201.111 340.584 197.716 341.438 194.492C342.292 191.268 343.982 188.327 346.337 185.969L347.485 184.779C351.02 181.228 353.002 176.417 352.997 171.4C352.992 166.384 351 161.572 347.459 158.022L344.519 155.084C340.971 151.54 336.165 149.55 331.157 149.55C326.149 149.55 321.348 151.541 317.807 155.085L316.634 156.184C314.288 158.533 311.366 160.222 308.161 161.081C304.956 161.939 301.581 161.938 298.376 161.076L293.837 159.841C290.635 158.98 287.714 157.291 285.367 154.943C283.02 152.594 281.331 149.67 280.468 146.463L280.027 144.816C278.727 139.965 275.556 135.827 271.213 133.314C266.87 130.8 261.709 130.117 256.867 131.415Z" stroke="#2CCBAB" stroke-linecap="round" stroke-linejoin="round"/>
<path d="M286.72 250.863C301.846 246.81 310.816 231.239 306.755 216.084C302.694 200.929 287.14 191.929 272.015 195.981C256.889 200.034 247.919 215.606 251.98 230.761C256.041 245.916 271.595 254.916 286.72 250.863Z" stroke="#2CCBAB" stroke-linecap="round" stroke-linejoin="round"/>
</g>
<g opacity="0.4">
<path d="M428.99 6.68041L424.973 5.6041C420.131 4.30659 414.97 4.98961 410.627 7.5029C406.284 10.0162 403.113 14.1539 401.813 19.0057L401.372 20.6522C400.509 23.8594 398.82 26.7837 396.473 29.1318C394.127 31.4799 391.206 33.1692 388.003 34.0303L383.465 35.2652C380.259 36.1271 376.884 36.1287 373.679 35.27C370.474 34.4112 367.552 32.7222 365.206 30.3729L364.033 29.2742C360.492 25.7301 355.691 23.7394 350.683 23.7393C345.675 23.7392 340.869 25.7295 337.321 29.2735L334.382 32.2112C330.84 35.7615 328.848 40.573 328.843 45.5895C328.838 50.606 330.82 55.4176 334.355 58.9681L335.479 60.2497C337.811 62.5854 339.491 65.4922 340.353 68.6814C341.215 71.8705 341.229 75.2309 340.393 78.4286L339.143 83.0936C338.292 86.3205 336.605 89.2658 334.253 91.6312C331.901 93.9965 328.967 95.6979 325.749 96.5631L324.159 97.0194C319.323 98.3269 315.2 101.503 312.696 105.85C310.192 110.197 309.512 115.359 310.804 120.205L311.881 124.219C313.181 129.062 316.348 133.188 320.685 135.692C325.022 138.196 330.176 138.873 335.014 137.574L336.58 137.209C339.785 136.347 343.161 136.346 346.366 137.205C349.571 138.063 352.493 139.752 354.838 142.102L358.151 145.44C360.494 147.787 362.179 150.711 363.037 153.918C363.895 157.124 363.896 160.502 363.04 163.711L362.599 165.357C361.299 170.209 361.975 175.377 364.48 179.726C366.985 184.074 371.113 187.246 375.955 188.543L379.972 189.62C384.814 190.917 389.975 190.234 394.318 187.721C398.661 185.207 401.832 181.07 403.132 176.218L403.573 174.571C404.436 171.364 406.125 168.44 408.472 166.092C410.818 163.744 413.74 162.054 416.942 161.193L421.48 159.958C424.686 159.097 428.061 159.095 431.266 159.954C434.471 160.812 437.393 162.501 439.739 164.851L440.912 165.949C444.453 169.494 449.254 171.484 454.262 171.484C459.27 171.484 464.076 169.494 467.624 165.95L470.588 162.921C474.13 159.371 476.122 154.559 476.127 149.543C476.132 144.526 474.149 139.715 470.615 136.164L469.441 135.065C467.087 132.707 465.397 129.767 464.543 126.542C463.689 123.318 463.7 119.924 464.577 116.704L465.802 112.13C466.653 108.903 468.34 105.958 470.692 103.592C473.044 101.227 475.978 99.5257 479.196 98.6605L480.786 98.2042C485.622 96.8967 489.745 93.7209 492.249 89.3739C494.753 85.027 495.433 79.8641 494.141 75.0187L493.064 71.0047C491.764 66.1616 488.597 62.0351 484.26 59.5312C479.923 57.0273 474.769 56.3505 469.931 57.6494L468.365 58.0143C465.16 58.8762 461.785 58.8778 458.58 58.0191C455.375 57.1603 452.453 55.4713 450.107 53.122L446.794 49.7834C444.451 47.4364 442.766 44.5129 441.908 41.3061C441.05 38.0993 441.049 34.722 441.905 31.513L442.347 29.8666C443.647 25.0148 442.97 19.8462 440.465 15.4979C437.96 11.1497 433.833 7.97792 428.99 6.68041Z" stroke="#2CCBAB" stroke-linecap="round" stroke-linejoin="round"/>
<path d="M395.12 125.053C410.245 129.106 425.799 120.105 429.86 104.95C433.921 89.7951 424.951 74.2238 409.825 70.1709C394.7 66.118 379.146 75.1182 375.085 90.2734C371.024 105.429 379.994 121 395.12 125.053Z" stroke="#2CCBAB" stroke-linecap="round" stroke-linejoin="round"/>
</g>
<g opacity="0.4">
<path d="M577.687 197.788L573.778 196.37C569.066 194.659 563.865 194.894 559.321 197.023C554.777 199.153 551.262 203.001 549.548 207.723L548.966 209.325C547.83 212.446 545.894 215.214 543.354 217.35C540.814 219.487 537.758 220.918 534.493 221.5L529.865 222.339C526.597 222.921 523.234 222.631 520.115 221.499C516.996 220.367 514.231 218.432 512.097 215.889L511.023 214.693C507.801 210.857 503.189 208.459 498.2 208.027C493.21 207.595 488.251 209.163 484.411 212.388L481.228 215.061C477.394 218.292 474.994 222.914 474.556 227.911C474.118 232.909 475.678 237.874 478.893 241.716L479.903 243.09C482.024 245.618 483.447 248.659 484.031 251.91C484.615 255.162 484.338 258.511 483.229 261.625L481.581 266.164C480.455 269.306 478.52 272.095 475.973 274.248C473.426 276.402 470.356 277.844 467.076 278.428L465.452 278.745C460.521 279.631 456.14 282.439 453.27 286.554C450.401 290.668 449.277 295.753 450.146 300.692L450.873 304.784C451.751 309.721 454.549 314.106 458.654 316.974C462.759 319.843 467.835 320.962 472.768 320.086L474.359 319.857C477.627 319.275 480.989 319.565 484.108 320.697C487.227 321.829 489.993 323.764 492.127 326.307L495.139 329.919C497.271 332.459 498.697 335.517 499.276 338.786C499.854 342.055 499.563 345.42 498.433 348.543L497.852 350.145C496.138 354.866 496.366 360.074 498.487 364.622C500.607 369.17 504.446 372.687 509.158 374.397L513.067 375.816C517.779 377.526 522.979 377.291 527.523 375.162C532.067 373.033 535.583 369.184 537.297 364.463L537.878 362.86C539.015 359.74 540.95 356.972 543.491 354.835C546.031 352.698 549.087 351.267 552.352 350.686L556.98 349.847C560.248 349.265 563.611 349.554 566.73 350.686C569.849 351.819 572.614 353.753 574.748 356.296L575.822 357.492C579.044 361.329 583.656 363.726 588.645 364.158C593.634 364.591 598.594 363.022 602.434 359.798L605.649 357.035C609.484 353.804 611.883 349.182 612.321 344.185C612.759 339.188 611.199 334.223 607.984 330.381L606.91 329.185C604.768 326.632 603.338 323.557 602.765 320.271C602.192 316.985 602.497 313.604 603.648 310.472L605.263 306.021C606.39 302.88 608.324 300.091 610.872 297.937C613.419 295.784 616.489 294.342 619.769 293.757L621.393 293.44C626.324 292.555 630.705 289.746 633.575 285.632C636.444 281.517 637.568 276.432 636.699 271.493L635.972 267.401C635.094 262.464 632.296 258.08 628.191 255.211C624.086 252.342 619.01 251.223 614.077 252.1L612.486 252.328C609.218 252.91 605.855 252.621 602.736 251.489C599.617 250.357 596.852 248.422 594.718 245.879L591.706 242.267C589.574 239.726 588.147 236.668 587.569 233.4C586.991 230.131 587.281 226.766 588.411 223.643L588.993 222.041C590.707 217.319 590.478 212.111 588.358 207.563C586.238 203.015 582.399 199.499 577.687 197.788Z" stroke="#2CCBAB" stroke-linecap="round" stroke-linejoin="round"/>
<path d="M533.729 312.797C548.449 318.14 564.721 310.515 570.074 295.767C575.428 281.018 567.835 264.731 553.115 259.388C538.396 254.046 522.124 261.67 516.77 276.418C511.417 291.167 519.01 307.454 533.729 312.797Z" stroke="#2CCBAB" stroke-linecap="round" stroke-linejoin="round"/>
</g>
<g opacity="0.4">
<path d="M721.068 529.38L718.464 528.076C715.324 526.503 711.688 526.245 708.354 527.358C705.02 528.47 702.262 530.862 700.687 534.008L700.153 535.075C699.109 537.154 697.538 538.922 695.597 540.203C693.657 541.483 691.415 542.231 689.096 542.371L685.809 542.579C683.488 542.718 681.173 542.244 679.095 541.204C677.017 540.163 675.25 538.593 673.972 536.651L673.322 535.732C671.392 532.801 668.378 530.76 664.942 530.054C661.506 529.349 657.929 530.037 654.996 531.969L652.566 533.57C649.636 535.507 647.592 538.528 646.882 541.969C646.172 545.409 646.854 548.99 648.779 551.923L649.37 552.961C650.64 554.892 651.384 557.123 651.526 559.432C651.668 561.741 651.204 564.049 650.18 566.125L648.666 569.149C647.627 571.243 646.055 573.026 644.108 574.318C642.162 575.609 639.909 576.363 637.58 576.503L636.425 576.593C632.923 576.808 629.647 578.407 627.317 581.036C624.987 583.666 623.793 587.112 623.997 590.618L624.17 593.524C624.38 597.029 625.972 600.306 628.594 602.635C631.217 604.964 634.658 606.154 638.16 605.944L639.285 605.914C641.606 605.775 643.922 606.249 646 607.289C648.077 608.33 649.844 609.9 651.122 611.842L652.925 614.599C654.202 616.539 654.946 618.783 655.083 621.103C655.22 623.424 654.745 625.741 653.706 627.822L653.171 628.89C651.596 632.035 651.332 635.677 652.438 639.012C653.544 642.348 655.93 645.106 659.069 646.678L661.673 647.982C664.812 649.554 668.449 649.812 671.783 648.7C675.117 647.587 677.874 645.195 679.45 642.05L679.984 640.982C681.028 638.904 682.599 637.135 684.539 635.855C686.48 634.574 688.722 633.827 691.04 633.687L694.328 633.479C696.649 633.339 698.964 633.814 701.042 634.854C703.12 635.895 704.887 637.465 706.165 639.407L706.815 640.326C708.745 643.256 711.759 645.298 715.195 646.004C718.63 646.709 722.208 646.02 725.141 644.089L727.601 642.428C730.531 640.491 732.575 637.471 733.285 634.03C733.995 630.589 733.313 627.009 731.388 624.075L730.738 623.156C729.455 621.207 728.709 618.951 728.577 616.619C728.446 614.286 728.932 611.959 729.986 609.874L731.471 606.909C732.51 604.815 734.082 603.032 736.029 601.74C737.975 600.449 740.228 599.695 742.557 599.554L743.712 599.465C747.214 599.249 750.49 597.651 752.82 595.022C755.15 592.392 756.344 588.946 756.14 585.44L755.967 582.534C755.757 579.028 754.165 575.751 751.543 573.423C748.92 571.094 745.479 569.904 741.977 570.114L740.852 570.143C738.531 570.283 736.215 569.809 734.137 568.768C732.059 567.728 730.293 566.158 729.014 564.215L727.212 561.458C725.935 559.518 725.191 557.275 725.054 554.954C724.917 552.633 725.392 550.316 726.431 548.235L726.966 547.168C728.541 544.022 728.804 540.381 727.698 537.045C726.592 533.709 724.207 530.952 721.068 529.38Z" stroke="#2CCBAB" stroke-linecap="round" stroke-linejoin="round"/>
<path d="M681.159 605.819C690.965 610.73 702.904 606.746 707.824 596.921C712.745 587.095 708.784 575.149 698.978 570.239C689.172 565.328 677.233 569.312 672.313 579.137C667.392 588.962 671.353 600.908 681.159 605.819Z" stroke="#2CCBAB" stroke-linecap="round" stroke-linejoin="round"/>
</g>
<path d="M366.098 271H359.902C352.431 271 345.267 273.982 339.984 279.289C334.702 284.596 331.734 291.794 331.734 299.3V301.847C331.729 306.81 330.425 311.684 327.954 315.981C325.482 320.277 321.929 323.845 317.651 326.326L311.595 329.864C307.313 332.348 302.456 333.655 297.511 333.655C292.567 333.655 287.71 332.348 283.428 329.864L281.315 328.732C274.852 324.986 267.173 323.97 259.964 325.906C252.756 327.843 246.607 332.574 242.867 339.061L239.768 344.438C236.04 350.932 235.029 358.647 236.956 365.89C238.884 373.132 243.593 379.31 250.05 383.068L252.162 384.483C256.419 386.952 259.959 390.498 262.43 394.768C264.9 399.037 266.216 403.882 266.246 408.821V416.037C266.265 421.024 264.973 425.928 262.5 430.251C260.027 434.575 256.46 438.165 252.162 440.658L250.05 441.932C243.593 445.69 238.884 451.868 236.956 459.11C235.029 466.353 236.04 474.068 239.768 480.561L242.867 485.939C246.607 492.426 252.756 497.157 259.964 499.094C267.173 501.03 274.852 500.014 281.315 496.268L283.428 495.136C287.71 492.652 292.567 491.345 297.511 491.345C302.456 491.345 307.313 492.652 311.595 495.136L317.651 498.673C321.929 501.155 325.482 504.723 327.954 509.019C330.425 513.316 331.729 518.19 331.734 523.153V525.7C331.734 533.206 334.702 540.404 339.984 545.711C345.267 551.018 352.431 554 359.902 554H366.098C373.569 554 380.733 551.018 386.016 545.711C391.298 540.404 394.266 533.206 394.266 525.7V523.153C394.271 518.19 395.575 513.316 398.046 509.019C400.518 504.723 404.071 501.155 408.349 498.673L414.405 495.136C418.687 492.652 423.544 491.345 428.489 491.345C433.433 491.345 438.29 492.652 442.572 495.136L444.685 496.268C451.148 500.014 458.827 501.03 466.036 499.094C473.244 497.157 479.393 492.426 483.133 485.939L486.232 480.42C489.96 473.926 490.971 466.211 489.044 458.969C487.116 451.726 482.407 445.548 475.95 441.79L473.838 440.658C469.54 438.165 465.973 434.575 463.5 430.251C461.027 425.928 459.735 421.024 459.754 416.037V408.962C459.735 403.976 461.027 399.072 463.5 394.749C465.973 390.425 469.54 386.835 473.838 384.342L475.95 383.068C482.407 379.31 487.116 373.132 489.044 365.89C490.971 358.647 489.96 350.932 486.232 344.438L483.133 339.061C479.393 332.574 473.244 327.843 466.036 325.906C458.827 323.97 451.148 324.986 444.685 328.732L442.572 329.864C438.29 332.348 433.433 333.655 428.489 333.655C423.544 333.655 418.687 332.348 414.405 329.864L408.349 326.326C404.071 323.845 400.518 320.277 398.046 315.981C395.575 311.684 394.271 306.81 394.266 301.847V299.3C394.266 291.794 391.298 284.596 386.016 279.289C380.733 273.982 373.569 271 366.098 271Z" stroke="#2CCBAB" stroke-linecap="round" stroke-linejoin="round"/>
<path d="M363 454.95C386.334 454.95 405.251 435.944 405.251 412.5C405.251 389.055 386.334 370.05 363 370.05C339.666 370.05 320.749 389.055 320.749 412.5C320.749 435.944 339.666 454.95 363 454.95Z" stroke="#2CCBAB" stroke-linecap="round" stroke-linejoin="round"/>
<path d="M550.833 280.292L541.458 280.292M544.583 290.708L535.208 290.708M544.583 290.708C544.583 292.434 545.982 293.833 547.708 293.833C549.434 293.833 550.833 292.434 550.833 290.708C550.833 288.982 549.434 287.583 547.708 287.583C545.982 287.583 544.583 288.982 544.583 290.708ZM540.417 280.292C540.417 282.017 539.018 283.417 537.292 283.417C535.566 283.417 534.167 282.017 534.167 280.292C534.167 278.566 535.566 277.167 537.292 277.167C539.018 277.167 540.417 278.566 540.417 280.292Z" stroke="#2CCBAB" stroke-linecap="round" stroke-linejoin="round"/>
<g clip-path="url(#clip1_9600_25535)">
<path d="M384.962 408.962C388.521 422.244 381.003 431.376 370.985 438.188C370.459 438.539 369.828 438.698 369.198 438.638C357.097 437.781 346.02 433.632 342.461 420.35L337.479 401.756C337.29 401.052 337.389 400.301 337.754 399.67C338.118 399.038 338.719 398.577 339.424 398.388C344.736 396.965 350.523 391.998 354.063 386.722C354.497 386.09 355.142 385.634 355.882 385.436C356.622 385.238 357.409 385.31 358.101 385.64C363.838 388.458 371.299 389.847 376.612 388.424C377.316 388.235 378.067 388.334 378.699 388.698C379.33 389.063 379.791 389.664 379.98 390.368L384.962 408.962Z" stroke="#2CCBAB" stroke-width="1.5" stroke-linecap="round" stroke-linejoin="round"/>
<path d="M355.031 414.135L361.767 418.024L369.545 404.552" stroke="#2CCBAB" stroke-width="1.5" stroke-linecap="round" stroke-linejoin="round"/>
</g>
<g clip-path="url(#clip2_9600_25535)">
<path d="M573.845 506.314L569.742 490.721C569.653 490.378 569.475 490.065 569.225 489.814C568.976 489.563 568.665 489.383 568.323 489.291C567.981 489.199 567.622 489.2 567.28 489.293C566.939 489.386 566.628 489.568 566.38 489.82L555.029 501.272C554.78 501.522 554.601 501.832 554.51 502.173C554.42 502.514 554.421 502.873 554.514 503.213C554.607 503.553 554.788 503.863 555.039 504.11C555.29 504.358 555.602 504.535 555.943 504.623L571.398 508.764C571.737 508.855 572.094 508.854 572.433 508.763C572.772 508.672 573.081 508.494 573.329 508.245C573.577 507.997 573.755 507.688 573.846 507.349C573.936 507.01 573.936 506.653 573.845 506.314Z" stroke="#2CCBAB" stroke-width="1.5" stroke-linecap="round" stroke-linejoin="round"/>
<path d="M566.776 495.103L565.741 498.966" stroke="#2CCBAB" stroke-width="1.5" stroke-linecap="round" stroke-linejoin="round"/>
<path d="M564.706 502.83L564.716 502.832" stroke="#2CCBAB" stroke-width="1.5" stroke-linecap="round" stroke-linejoin="round"/>
</g>
<path d="M86.9513 485.277L75.6004 473.825C75.3522 473.573 75.0416 473.391 74.7003 473.298C74.3589 473.205 73.999 473.204 73.6573 473.296C73.3155 473.388 73.0042 473.568 72.7551 473.819C72.5059 474.07 72.3278 474.383 72.239 474.726L68.135 490.319C68.0438 490.66 68.0442 491.018 68.1362 491.359C68.2282 491.699 68.4086 492.009 68.659 492.257C68.9094 492.506 69.2211 492.683 69.5623 492.772C69.9035 492.861 70.2621 492.858 70.6019 492.764L86.0567 488.623C86.3955 488.532 86.7044 488.353 86.9524 488.105C87.2003 487.856 87.3785 487.547 87.4692 487.208C87.5598 486.869 87.5597 486.512 87.4688 486.173C87.3779 485.835 87.1994 485.526 86.9513 485.277Z" stroke="#2CCBAB" stroke-width="1.5" stroke-linecap="round" stroke-linejoin="round"/>
<path d="M75.2234 479.102L76.2587 482.966" stroke="#2CCBAB" stroke-width="1.5" stroke-linecap="round" stroke-linejoin="round"/>
<path d="M77.294 486.83L77.3037 486.827" stroke="#2CCBAB" stroke-width="1.5" stroke-linecap="round" stroke-linejoin="round"/>
<g clip-path="url(#clip3_9600_25535)">
<path d="M279.518 221.068C279.005 220.931 278.459 221.003 278 221.268C277.541 221.533 277.205 221.97 277.068 222.483C276.804 223.468 276.322 224.881 275.782 226.279" stroke="#2CCBAB" stroke-width="1.5" stroke-linecap="round" stroke-linejoin="round"/>
<path d="M280.642 224.6C280.026 226.899 278.991 230.762 277.378 232.918" stroke="#2CCBAB" stroke-width="1.5" stroke-linecap="round" stroke-linejoin="round"/>
<path d="M281.775 233.082C282.046 232.534 282.786 230.972 283.04 230.294" stroke="#2CCBAB" stroke-width="1.5" stroke-linecap="round" stroke-linejoin="round"/>
<path d="M269.341 220.412C269.884 218.385 271.051 216.58 272.677 215.253C274.303 213.926 276.306 213.144 278.401 213.018C280.496 212.893 282.577 213.429 284.35 214.552C286.124 215.675 287.498 217.328 288.28 219.275" stroke="#2CCBAB" stroke-width="1.5" stroke-linecap="round" stroke-linejoin="round"/>
<path d="M268.305 224.276L268.315 224.278" stroke="#2CCBAB" stroke-width="1.5" stroke-linecap="round" stroke-linejoin="round"/>
<path d="M287.431 229.4C288.142 227.52 288.943 224.262 288.984 223.604" stroke="#2CCBAB" stroke-width="1.5" stroke-linecap="round" stroke-linejoin="round"/>
<path d="M270.297 228.433C271.168 227.113 272.428 224.345 273.204 221.447C273.38 220.789 273.666 220.165 274.05 219.603" stroke="#2CCBAB" stroke-width="1.5" stroke-linecap="round" stroke-linejoin="round"/>
<path d="M273.176 231.792C273.55 231.209 273.952 230.634 274.244 230.008" stroke="#2CCBAB" stroke-width="1.5" stroke-linecap="round" stroke-linejoin="round"/>
<path d="M277.448 217.201C278.466 216.928 279.537 216.928 280.555 217.201C281.572 217.474 282.5 218.01 283.245 218.755C283.99 219.5 284.525 220.428 284.797 221.446C285.069 222.464 285.069 223.535 284.795 224.553L284.278 226.485" stroke="#2CCBAB" stroke-width="1.5" stroke-linecap="round" stroke-linejoin="round"/>
</g>
<g clip-path="url(#clip4_9600_25535)">
<path d="M210.898 558.223L206.068 559.518" stroke="#2CCBAB" stroke-width="1.5" stroke-linecap="round" stroke-linejoin="round"/>
<path d="M209.862 554.36L205.033 555.654" stroke="#2CCBAB" stroke-width="1.5" stroke-linecap="round" stroke-linejoin="round"/>
<path d="M216.055 562.018L212.95 550.427C212.812 549.914 212.477 549.477 212.018 549.212C211.558 548.947 211.013 548.875 210.5 549.012L197.943 552.377" stroke="#2CCBAB" stroke-width="1.5" stroke-linecap="round" stroke-linejoin="round"/>
<path d="M206.466 568.729L218.057 565.623C218.569 565.486 219.006 565.15 219.271 564.691C219.536 564.232 219.608 563.686 219.471 563.173L219.212 562.208C219.143 561.951 218.976 561.733 218.746 561.6C218.516 561.468 218.244 561.432 217.987 561.5L208.328 564.089C208.072 564.157 207.853 564.325 207.721 564.555C207.588 564.784 207.552 565.057 207.621 565.313L207.88 566.279C208.017 566.792 207.945 567.338 207.68 567.797C207.415 568.256 206.978 568.591 206.466 568.729ZM206.466 568.729C205.953 568.866 205.407 568.794 204.948 568.529C204.489 568.264 204.153 567.827 204.016 567.315L200.393 553.792C200.255 553.279 199.92 552.842 199.461 552.577C199.001 552.312 198.456 552.24 197.943 552.377C197.431 552.515 196.994 552.85 196.729 553.309C196.464 553.769 196.392 554.315 196.529 554.827L197.047 556.759C197.115 557.015 197.283 557.233 197.512 557.366C197.742 557.499 198.015 557.534 198.271 557.466L201.169 556.689" stroke="#2CCBAB" stroke-width="1.5" stroke-linecap="round" stroke-linejoin="round"/>
</g>
<g clip-path="url(#clip5_9600_25535)">
<path d="M691.898 588.776L687.068 587.482" stroke="#2CCBAB" stroke-width="1.5" stroke-linecap="round" stroke-linejoin="round"/>
<path d="M692.933 584.912L688.103 583.618" stroke="#2CCBAB" stroke-width="1.5" stroke-linecap="round" stroke-linejoin="round"/>
<path d="M694.467 594.641L697.573 583.05C697.71 582.538 697.639 581.992 697.373 581.532C697.108 581.073 696.671 580.738 696.159 580.6L683.602 577.236" stroke="#2CCBAB" stroke-width="1.5" stroke-linecap="round" stroke-linejoin="round"/>
<path d="M682.807 595.658L694.398 598.764C694.91 598.901 695.456 598.829 695.916 598.564C696.375 598.299 696.71 597.862 696.847 597.349L697.106 596.384C697.175 596.127 697.139 595.854 697.006 595.625C696.874 595.395 696.655 595.227 696.399 595.159L686.74 592.571C686.484 592.502 686.211 592.538 685.981 592.67C685.751 592.803 685.584 593.022 685.515 593.278L685.256 594.244C685.119 594.756 684.784 595.193 684.324 595.458C683.865 595.723 683.319 595.795 682.807 595.658ZM682.807 595.658C682.294 595.521 681.858 595.185 681.592 594.726C681.327 594.267 681.255 593.721 681.393 593.208L685.016 579.685C685.153 579.173 685.082 578.627 684.816 578.168C684.551 577.708 684.114 577.373 683.602 577.236C683.09 577.099 682.544 577.17 682.084 577.436C681.625 577.701 681.29 578.138 681.152 578.65L680.635 580.582C680.566 580.838 680.602 581.111 680.735 581.341C680.867 581.57 681.086 581.738 681.342 581.807L684.24 582.583" stroke="#2CCBAB" stroke-width="1.5" stroke-linecap="round" stroke-linejoin="round"/>
</g>
<g clip-path="url(#clip6_9600_25535)">
<path d="M410.949 93.5312C411.971 95.578 412.259 97.9129 411.767 100.147C411.275 102.381 410.032 104.378 408.246 105.807C406.459 107.235 404.237 108.008 401.95 107.996C399.662 107.984 397.448 107.188 395.677 105.742C393.905 104.295 392.683 102.285 392.214 100.046C391.745 97.807 392.058 95.4751 393.1 93.439C394.142 91.403 395.851 89.7858 397.942 88.8571C400.032 87.9285 402.377 87.7445 404.587 88.3359" stroke="#2CCBAB" stroke-width="1.5" stroke-linecap="round" stroke-linejoin="round"/>
<path d="M398.843 97.8103L402.518 99.9316L409.589 87.6842" stroke="#2CCBAB" stroke-width="1.5" stroke-linecap="round" stroke-linejoin="round"/>
</g>
</g>
<defs>
<clipPath id="clip0_9600_25535">
<rect width="823" height="698" fill="white"/>
</clipPath>
<clipPath id="clip1_9600_25535">
<rect width="66" height="66" fill="white" transform="translate(322.583 388.666) rotate(-15)"/>
</clipPath>
<clipPath id="clip2_9600_25535">
<rect width="24" height="24" fill="white" transform="translate(557.515 483.303) rotate(15)"/>
</clipPath>
<clipPath id="clip3_9600_25535">
<rect width="24" height="24" fill="white" transform="translate(270.515 208.303) rotate(15)"/>
</clipPath>
<clipPath id="clip4_9600_25535">
<rect width="24" height="24" fill="white" transform="translate(193.303 550.515) rotate(-15)"/>
</clipPath>
<clipPath id="clip5_9600_25535">
<rect width="24" height="24" fill="white" transform="translate(680.515 573.303) rotate(15)"/>
</clipPath>
<clipPath id="clip6_9600_25535">
<rect width="24" height="24" fill="white" transform="translate(387.303 89.5146) rotate(-15)"/>
</clipPath>
</defs>
</svg>
